<svg width="33" height="33" viewBox="0 0 33 33" fill="none" xmlns="http://www.w3.org/2000/svg">
<path d="M19.7494 16.1039C19.6374 16.0279 19.484 16.0585 19.408 16.1719C18.9627 16.8425 18.0174 16.8785 17.968 16.8785C17.9587 16.8785 17.9547 16.8785 17.9454 16.8785C16.78 16.8785 16.3347 17.8732 16.3174 17.9132C16.264 18.0385 16.3214 18.1825 16.4427 18.2372C16.4747 18.2505 16.5107 18.2599 16.5414 18.2599C16.636 18.2599 16.7254 18.2065 16.7667 18.1119C16.7707 18.1025 17.0774 17.4185 17.864 17.3745V18.6479C17.832 18.9225 17.7027 19.1385 17.472 19.2999C17.2334 19.4666 16.9147 19.5519 16.5227 19.5519C16.0547 19.5519 15.672 19.3906 15.3894 19.0705C15.1014 18.7505 14.9574 18.2972 14.9574 17.7119L14.9614 16.3079C14.984 15.7905 15.1227 15.3812 15.3894 15.0892C15.6774 14.7692 16.0547 14.6079 16.5227 14.6079C16.9147 14.6079 17.2334 14.6932 17.472 14.8599C17.7107 15.0265 17.8454 15.2559 17.868 15.5532C17.868 15.5625 17.868 15.5759 17.868 15.5852C17.868 15.7559 18.008 15.8959 18.1787 15.8959C18.3494 15.8959 18.4894 15.7559 18.4894 15.5852C18.4894 15.5759 18.4894 15.5625 18.4894 15.5532C18.444 15.1079 18.2414 14.7572 17.8774 14.4919C17.5134 14.2239 17.06 14.0932 16.5107 14.0932C15.8587 14.0932 15.332 14.3092 14.932 14.7359C14.5547 15.1359 14.356 15.6625 14.3333 16.3105C14.3333 16.3559 14.3293 16.3999 14.3293 16.4452L14.3333 17.7092H14.3293C14.3293 18.4239 14.532 18.9959 14.932 19.4226C15.332 19.8492 15.8587 20.0652 16.5107 20.0652C17.06 20.0652 17.5134 19.9346 17.8787 19.6692C18.212 19.4265 18.4094 19.1065 18.4774 18.7105L18.4907 17.2985C18.9 17.1999 19.4574 16.9745 19.8094 16.4439C19.8974 16.3332 19.8667 16.1799 19.7494 16.1039ZM24.0814 1.64112H27.5321C27.6854 1.64112 27.8108 1.51578 27.8108 1.36245C27.8108 1.20912 27.6854 1.08378 27.5321 1.08378H24.0814C23.9281 1.08378 23.8027 1.20912 23.8027 1.36245C23.8027 1.51578 23.9281 1.64112 24.0814 1.64112ZM5.5973 1.64112H9.04799C9.20132 1.64112 9.32665 1.51578 9.32665 1.36245C9.32665 1.20912 9.19999 1.08378 9.04799 1.08378H5.5973C5.44397 1.08378 5.31863 1.20912 5.31863 1.36245C5.31863 1.51578 5.43997 1.64112 5.5973 1.64112ZM27.7081 3.88113C27.8628 3.88113 27.9868 4.00647 27.9868 4.1598C27.9868 4.31447 27.8614 4.43847 27.7081 4.43847C27.5534 4.43847 27.4294 4.31313 27.4294 4.1598C27.4281 4.00647 27.5534 3.88113 27.7081 3.88113ZM16.484 3.00379C16.6387 3.00379 16.7627 3.12913 16.7627 3.28246C16.7627 3.4358 16.6374 3.56113 16.484 3.56113C16.3307 3.56113 16.2054 3.4358 16.2054 3.28246C16.2054 3.12913 16.3294 3.00379 16.484 3.00379ZM11.3107 4.16513C11.3147 4.16513 11.32 4.16513 11.324 4.16513C12.372 4.16513 12.84 3.5078 13.196 2.89713C13.3133 2.69446 13.7453 2.01979 14.356 1.84512C15.112 1.62512 15.9174 1.97579 16.232 2.66379C16.2774 2.76246 16.376 2.82113 16.4747 2.82513C16.4787 2.82513 16.484 2.82513 16.488 2.82513C16.492 2.82513 16.4974 2.82513 16.5054 2.82513C16.604 2.82113 16.7027 2.76246 16.748 2.66379C17.0627 1.97579 17.868 1.62512 18.624 1.84512C19.236 2.02512 19.668 2.69579 19.784 2.89713C20.14 3.51313 20.6067 4.16513 21.6694 4.16513C22.3081 4.16513 23.0641 3.6878 23.2747 2.77446C23.4507 2.01845 23.1267 1.33445 22.4201 0.989115C22.2801 0.921115 22.1147 0.975782 22.0467 1.11445C21.9787 1.25445 22.0334 1.41978 22.1721 1.48778C22.8427 1.82112 22.7841 2.41046 22.7294 2.64779C22.6214 3.11579 22.2081 3.61046 21.6627 3.61046C20.9654 3.61046 20.6321 3.25979 20.2587 2.61579C20.0747 2.30112 19.5614 1.53579 18.7747 1.30645C17.916 1.05445 17.0067 1.35578 16.4854 2.01712C15.964 1.35578 15.0547 1.05445 14.196 1.30645C13.4093 1.53579 12.896 2.30112 12.712 2.61579C12.3387 3.25846 12.0053 3.61046 11.3213 3.61046C11.3173 3.61046 11.312 3.61046 11.312 3.61046C10.7187 3.60646 10.34 3.19179 10.232 2.78246C10.1787 2.58912 10.0653 1.92779 10.8213 1.47845C10.952 1.40245 10.9973 1.23045 10.916 1.09578C10.8373 0.966449 10.672 0.921115 10.536 1.00245C9.66799 1.51979 9.53332 2.33846 9.69466 2.93179C9.89332 3.66513 10.5453 4.1598 11.3107 4.16513ZM5.1613 3.88113C5.31597 3.88113 5.43997 4.00647 5.43997 4.1598C5.43997 4.31447 5.31463 4.43847 5.1613 4.43847C5.00796 4.43847 4.8813 4.31447 4.8813 4.1598C4.8813 4.00647 5.00663 3.88113 5.1613 3.88113ZM4.37863 1.08778C4.5333 1.08778 4.6573 1.21312 4.6573 1.36645C4.6573 1.51979 4.53196 1.64512 4.37863 1.64512C4.22529 1.64512 4.09863 1.52112 4.09863 1.36645C4.09863 1.21178 4.22396 1.08778 4.37863 1.08778ZM28.6974 1.08778C28.8521 1.08778 28.9761 1.21312 28.9761 1.36645C28.9761 1.51979 28.8508 1.64512 28.6974 1.64512C28.5441 1.64512 28.4188 1.51979 28.4188 1.36645C28.4188 1.21312 28.5428 1.08778 28.6974 1.08778ZM30.1908 18.9599C30.3454 18.9599 30.4694 19.0852 30.4694 19.2385C30.4694 19.3932 30.3441 19.5172 30.1908 19.5172C30.0361 19.5172 29.9121 19.3919 29.9121 19.2385C29.9121 19.0852 30.0361 18.9599 30.1908 18.9599ZM29.0708 25.3399C29.2254 25.3399 29.3494 25.4653 29.3494 25.6186C29.3494 25.7733 29.2241 25.8973 29.0708 25.8973C28.9174 25.8973 28.7921 25.7719 28.7921 25.6186C28.7921 25.4639 28.9161 25.3399 29.0708 25.3399ZM27.2801 26.1359C27.4348 26.1359 27.5588 26.2613 27.5588 26.4146C27.5588 26.5693 27.4334 26.6933 27.2801 26.6933C27.1254 26.6933 27.0014 26.5679 27.0014 26.4146C27.0014 26.2599 27.1268 26.1359 27.2801 26.1359ZM10.7293 2.41046C10.7293 2.82379 11.0667 3.16113 11.48 3.16113C11.8933 3.16113 12.2307 2.82379 12.2307 2.41046C12.2307 1.99712 11.8947 1.65845 11.4813 1.65845C11.068 1.65445 10.7293 1.99179 10.7293 2.41046ZM11.4813 2.21179C11.5893 2.21179 11.6787 2.30112 11.6787 2.40912C11.6787 2.51712 11.5893 2.60646 11.4813 2.60646C11.3733 2.60646 11.284 2.51712 11.284 2.40912C11.2827 2.30246 11.3733 2.21179 11.4813 2.21179ZM21.6027 3.16113C22.0161 3.16113 22.3534 2.82379 22.3534 2.41046C22.3534 1.99712 22.0161 1.65979 21.6027 1.65979C21.1894 1.65979 20.8521 1.99712 20.8521 2.41046C20.8521 2.82379 21.1894 3.16113 21.6027 3.16113ZM21.6027 2.21179C21.7107 2.21179 21.8001 2.30112 21.8001 2.40912C21.8001 2.51712 21.7107 2.60646 21.6027 2.60646C21.4947 2.60646 21.4054 2.51712 21.4054 2.40912C21.4054 2.30246 21.4947 2.21179 21.6027 2.21179ZM17.244 2.87846C17.1 2.93179 17.028 3.09046 17.0827 3.23446C17.136 3.37846 17.2947 3.45046 17.4387 3.40113C17.484 3.3838 18.5627 3.02379 19.3907 4.31047C19.444 4.3918 19.5347 4.4358 19.624 4.4358C19.6734 4.4358 19.728 4.42247 19.772 4.39047C19.9027 4.30913 19.9387 4.13447 19.8574 4.0078C18.9934 2.67179 17.7707 2.68512 17.244 2.87846ZM15.7414 2.87846C15.7014 2.86513 15.332 2.73446 14.828 2.81046C14.36 2.87846 13.6893 3.14379 13.132 4.0118C13.0507 4.14247 13.0867 4.31313 13.2173 4.39447C13.2627 4.42647 13.316 4.4398 13.3653 4.4398C13.4547 4.4398 13.5453 4.39447 13.5987 4.31447C14.4213 3.02779 15.5014 3.3878 15.5507 3.40513C15.6947 3.45846 15.852 3.38246 15.9067 3.23846C15.9614 3.09446 15.8854 2.93179 15.7414 2.87846ZM28.5401 3.63846L29.8948 2.09979V4.31713C29.8948 4.47047 30.0201 4.5958 30.1734 4.5958C30.3268 4.5958 30.4521 4.47047 30.4521 4.31713V1.36645C30.4521 1.24912 30.3801 1.14645 30.2721 1.10512C30.1641 1.06378 30.0428 1.09578 29.9668 1.18112L28.1268 3.27313C28.0228 3.39046 28.0374 3.56513 28.1534 3.66513C28.2614 3.76913 28.4361 3.7558 28.5401 3.63846ZM2.85329 4.60114C3.00662 4.60114 3.13195 4.4758 3.13195 4.32247V2.10379L4.48663 3.64246C4.5893 3.7598 4.7653 3.76913 4.8773 3.67046C4.99463 3.56646 5.00263 3.3918 4.90396 3.27846L3.06395 1.18245C2.98795 1.09712 2.86662 1.06512 2.75862 1.10512C2.65062 1.14645 2.57862 1.24912 2.57862 1.36645V4.32247C2.57862 4.47447 2.69995 4.60114 2.85329 4.60114ZM22.4934 4.8758C22.3627 4.86647 22.2414 4.95714 22.2094 5.08247C22.1774 5.21314 22.2414 5.34781 22.3574 5.40247C22.7987 5.60914 23.1987 5.69047 23.5587 5.69047C24.2467 5.69047 24.7961 5.38914 25.1787 5.07447C25.7907 4.57047 26.1054 3.9358 26.1187 3.90913C26.1814 3.77846 26.1361 3.62113 26.0107 3.54913C25.7267 3.38246 25.2374 3.27979 24.4907 3.73313C24.1174 3.96247 23.8294 4.23713 23.7801 4.28647C23.0961 4.88914 22.5254 4.8758 22.4934 4.8758ZM24.1534 4.6998C24.1574 4.6958 24.1627 4.69047 24.1667 4.68647C24.3787 4.47447 24.9761 3.98513 25.4441 3.96247C25.3094 4.1558 25.1067 4.41713 24.8321 4.64647C24.4267 4.9798 23.9947 5.14114 23.5361 5.1318C23.7267 5.03314 23.9374 4.88914 24.1534 4.6998ZM7.10798 3.5478C6.98264 3.6198 6.93731 3.77846 7.00131 3.9078C7.01464 3.93446 7.32931 4.56914 7.94131 5.07314C8.32398 5.38781 8.86799 5.68914 9.56132 5.68914C9.92532 5.68914 10.3267 5.60781 10.7627 5.40114C10.884 5.34247 10.9427 5.21181 10.9107 5.08114C10.8787 4.9518 10.7613 4.86647 10.6267 4.87047C10.604 4.87047 10.028 4.8878 9.34399 4.28513C9.29465 4.23713 9.00665 3.96247 8.63332 3.73313C7.88665 3.28246 7.39198 3.38646 7.10798 3.5478ZM8.97065 4.6998C9.18265 4.88914 9.39332 5.0278 9.58666 5.1318C8.61465 5.14114 7.97198 4.39847 7.67865 3.96247C8.14665 3.98513 8.74532 4.4758 8.95599 4.68647C8.96265 4.69047 8.96665 4.6958 8.97065 4.6998ZM30.5188 27.3053C30.2401 27.0719 29.9334 26.9359 29.6508 26.8599C29.7588 26.7786 29.8628 26.6839 29.9521 26.5813C30.6401 25.7719 30.6454 24.5799 29.9614 23.8052C29.8574 23.6879 29.6828 23.6799 29.5694 23.7826C29.4521 23.8866 29.4441 24.0612 29.5468 24.1746C30.0468 24.7412 30.0374 25.6186 29.5294 26.2213C29.1161 26.7066 28.3281 26.8239 28.0948 26.8506C27.3881 26.9266 26.5961 27.0893 26.1694 28.0559C26.1014 28.2039 26.0614 28.3706 26.0521 28.5506C25.9534 28.5186 25.8454 28.5013 25.7374 28.5013C25.1747 28.5013 24.7161 28.9599 24.7161 29.5226C24.7161 29.9093 24.9321 30.2466 25.2507 30.4173C25.1561 30.5026 25.0667 30.5973 24.9854 30.7053C24.0401 29.4319 22.5294 28.6319 20.8654 28.6319C20.6267 28.6319 20.3881 28.6493 20.1587 28.6813C21.5267 28.2626 22.7987 27.6106 23.9601 26.7466C25.4587 25.6266 26.7041 24.1639 27.5588 22.5226C28.4588 20.7946 28.9134 18.9279 28.9134 16.9852C28.9134 16.9719 28.9134 16.9625 28.9134 16.9492C28.9134 16.9452 28.9134 16.9452 28.9134 16.9399C28.9134 16.9345 28.9134 16.9305 28.9134 16.9265C28.9041 15.3479 28.5534 13.9265 28.0548 12.7025C28.2388 12.7385 28.4148 12.7518 28.5721 12.7518C29.7374 12.7518 30.2494 11.9505 30.3041 11.8572C30.5561 11.4345 30.5961 10.9212 30.4521 10.4585C30.4561 10.4452 30.4561 10.4265 30.4561 10.4092V5.33847C30.4561 5.18514 30.3308 5.0598 30.1774 5.0598C30.0241 5.0598 29.8988 5.18514 29.8988 5.33847V9.5985C29.4268 9.18916 28.7428 9.14383 28.4588 9.14383C27.9094 9.14783 27.5681 9.06249 27.3161 8.63049C27.1041 8.26649 27.2268 7.88782 27.4374 7.67182C27.7028 7.40248 28.0801 7.36648 28.4494 7.56782C28.5841 7.63982 28.7548 7.59449 28.8268 7.45982C28.8988 7.32515 28.8534 7.15448 28.7188 7.08248C28.1334 6.75848 27.4774 6.83981 27.0414 7.27982C26.6094 7.72115 26.5281 8.37316 26.8348 8.90383C27.2348 9.59183 27.8428 9.6905 28.4401 9.6905C28.4494 9.6905 28.4534 9.6905 28.4628 9.6905C28.6428 9.6905 29.2228 9.71716 29.5561 10.0318C29.9881 10.4412 30.1001 11.0838 29.8174 11.5612C29.8174 11.5612 29.8134 11.5652 29.8134 11.5705C29.7908 11.6105 29.2561 12.5198 27.7628 12.0425C27.3134 11.0892 26.7908 10.2785 26.3054 9.63183L26.0841 9.80116L26.3041 9.6305L26.2148 9.51316C25.2561 7.90782 26.3627 6.19714 26.9388 5.47314L27.2628 5.1038C27.3614 4.98647 27.3521 4.8118 27.2361 4.7118C27.1241 4.61714 26.9614 4.62247 26.8588 4.72514C26.8494 4.73447 26.8001 4.7838 26.7241 4.86914C26.2241 5.37714 24.2721 7.17715 22.3787 6.23714L22.3254 6.20114L22.2987 6.18381C20.6027 5.27047 18.9294 4.7438 17.332 4.60914C17.1254 4.13713 16.8507 3.77713 16.504 3.77713C16.1534 3.77713 15.8787 4.14113 15.6667 4.62247C13.4307 4.72114 10.6507 6.16514 10.5333 6.22381C8.62932 7.18382 6.66797 5.37447 6.16797 4.86647C6.09197 4.78114 6.0373 4.7318 6.0333 4.72247C5.9293 4.61847 5.76797 4.61447 5.65597 4.70914C5.53863 4.8078 5.53063 4.9838 5.6293 5.10114L5.97597 5.49314C6.1773 5.74381 6.43331 6.10781 6.64931 6.54381C7.18931 7.63715 7.19864 8.63049 6.68131 9.50383C6.0373 10.3052 5.51597 11.1465 5.11597 12.0332C3.60929 12.5238 3.06929 11.6052 3.04662 11.5652C3.04662 11.5612 3.04262 11.5612 3.04262 11.5558C2.75862 11.0785 2.87062 10.4358 3.30262 10.0265C3.63596 9.71183 4.21596 9.68516 4.39596 9.68516H4.39996C5.00263 9.68516 5.62397 9.5905 6.02397 8.89849C6.33064 8.36649 6.2493 7.70915 5.8173 7.27315C5.3813 6.82781 4.72396 6.75181 4.13996 7.07582C4.00396 7.14782 3.95463 7.31848 4.03196 7.45315C4.10396 7.58782 4.27463 7.63715 4.40929 7.56115C4.78263 7.35848 5.15997 7.39448 5.4213 7.66515C5.6333 7.88115 5.75064 8.25849 5.54263 8.62249C5.29597 9.05049 4.95863 9.13583 4.41863 9.13583C4.41463 9.13583 4.40929 9.13583 4.40129 9.13583C4.15329 9.13583 3.57862 9.17183 3.11862 9.46916V5.40647C3.11862 5.25314 2.99329 5.1278 2.83995 5.1278C2.68662 5.1278 2.56128 5.25314 2.56128 5.40647V10.0852C2.25462 10.6332 2.23728 11.3038 2.55195 11.8438C2.58262 11.9025 2.77595 12.2265 3.20795 12.4692C3.45596 12.6078 3.81062 12.7385 4.28396 12.7385C4.45463 12.7385 4.64396 12.7212 4.84663 12.6798C4.36129 13.9839 4.11729 15.3879 4.10929 16.9172C4.10929 16.9212 4.10929 16.9212 4.10929 16.9265V16.9305C4.10929 16.9439 4.10929 16.9572 4.10929 16.9665C4.10929 19.7292 5.0813 22.4412 6.84397 24.6052C8.40532 26.5213 10.528 27.9426 12.8813 28.6679C12.6333 28.6319 12.3813 28.6146 12.1307 28.6146C10.48 28.6146 8.98132 29.4013 8.03731 30.6573C7.96131 30.5586 7.87598 30.4639 7.78131 30.3826C8.07865 30.2026 8.28132 29.8786 8.28132 29.5053C8.28132 28.9426 7.82265 28.4839 7.25998 28.4839C7.15598 28.4839 7.05731 28.5013 6.96264 28.5293C6.94931 28.3533 6.90931 28.1879 6.84531 28.0386C6.41331 27.0719 5.62663 26.9093 4.91996 26.8333C4.68663 26.8066 3.89862 26.6893 3.48529 26.2039C2.96395 25.6146 2.95462 24.7372 3.45329 24.1706C3.55729 24.0532 3.54262 23.8786 3.43062 23.7786C3.31329 23.6746 3.13862 23.6892 3.03862 23.8012C2.35995 24.5746 2.36395 25.7666 3.04795 26.5773C3.13729 26.6853 3.24129 26.7746 3.34929 26.8559C3.06529 26.9319 2.75995 27.0719 2.48128 27.3013C1.81995 27.8453 1.48261 28.7546 1.47328 29.9919C1.45061 30.1039 1.49994 30.2213 1.59861 30.2839C1.64395 30.3106 1.69328 30.3239 1.74261 30.3239C1.75995 30.3239 1.78261 30.3199 1.80128 30.3146H1.80528C1.81461 30.3146 1.81861 30.3106 1.82795 30.3053C1.84128 30.3013 1.85995 30.2959 1.87328 30.2879C1.87728 30.2879 1.87728 30.2839 1.88261 30.2839C1.92795 30.2573 1.96795 30.2213 1.99461 30.1759C2.10262 30.0359 2.54795 29.8613 2.91729 29.7839C4.36129 29.4693 4.66263 28.4933 4.6173 28.0253C4.60396 27.8719 4.46929 27.7599 4.31596 27.7733C4.16263 27.7866 4.05063 27.9213 4.06396 28.0746C4.06396 28.0786 4.06796 28.1599 4.04129 28.2813C3.97329 28.5599 3.72662 29.0413 2.79995 29.2439C2.79595 29.2439 2.79595 29.2439 2.79062 29.2439C2.68262 29.2666 2.35862 29.3426 2.05728 29.4826C2.13862 28.6813 2.39462 28.0973 2.83062 27.7333C3.50129 27.1759 4.38663 27.3333 4.39596 27.3373C4.42796 27.3413 4.45463 27.3413 4.48129 27.3373C4.6293 27.3693 4.75596 27.3866 4.85063 27.3959C5.5933 27.4773 6.04664 27.6386 6.33064 28.2733C6.55064 28.7733 6.26797 29.3479 5.8853 29.6359C5.69197 29.7839 5.17463 30.0773 4.59463 29.5999C4.47729 29.5013 4.30263 29.5186 4.20263 29.6359C4.10396 29.7533 4.12129 29.9279 4.23863 30.0279C4.49996 30.2439 4.79196 30.3693 5.0933 30.4053C4.70663 30.7199 4.44529 31.1159 4.32796 31.3226C3.95063 31.9746 3.64396 32.3253 3.13595 32.3306V30.3826C3.13595 30.2293 3.01062 30.1039 2.85729 30.1039C2.70395 30.1039 2.57862 30.2293 2.57862 30.3826V32.6413C2.57862 32.7533 2.64662 32.848 2.73995 32.8933C2.78929 32.9293 2.84795 32.956 2.91062 32.956H9.38799C9.48666 32.956 9.56799 32.9066 9.62132 32.8306C9.65732 32.7946 9.68932 32.7493 9.70266 32.696C9.95866 31.7013 10.8547 31.0093 11.88 31.0093C12.7973 31.0093 13.612 31.5666 13.9587 32.4H13.3667C13.124 31.8013 12.5387 31.4013 11.8773 31.4013C11.1533 31.4013 10.5147 31.892 10.3213 32.5893C10.2813 32.7373 10.3707 32.8906 10.5147 32.9306C10.6627 32.9706 10.816 32.8813 10.856 32.7373C10.9813 32.2786 11.4 31.9586 11.8733 31.9586C12.224 31.9586 12.5387 32.1293 12.732 32.4H12.5693C12.416 32.4 12.2907 32.5253 12.2907 32.6786C12.2907 32.832 12.416 32.9573 12.5693 32.9573H13.132C13.1413 32.956 13.1547 32.96 13.164 32.96C13.1773 32.96 13.1907 32.96 13.2 32.956H14.316C14.4693 32.956 14.5947 32.8306 14.5947 32.6773C14.5947 32.664 14.5947 32.6506 14.5907 32.6373C14.5947 32.6013 14.5947 32.5613 14.5867 32.52C14.2587 31.3013 13.1427 30.4506 11.8787 30.4506C10.6547 30.4506 9.57999 31.2426 9.20665 32.3986H7.75331C7.87065 32.0253 8.02798 31.6786 8.22532 31.3546C8.23865 31.3373 8.24798 31.3186 8.26132 31.3013C9.08399 30.0106 10.524 29.1826 12.1213 29.1826C13.0667 29.1826 13.9747 29.4706 14.744 30.0106C14.7667 30.0239 14.7894 30.0373 14.812 30.0426C14.9294 30.1826 15.0454 30.3306 15.1587 30.4839C15.1854 30.5199 15.208 30.5559 15.2347 30.5919C15.208 31.1626 15.5187 31.7613 16.1614 32.3733C16.184 32.4413 16.2067 32.4986 16.22 32.544V32.6026C16.22 32.756 16.3454 32.8813 16.4987 32.8813C16.6294 32.8813 16.732 32.796 16.764 32.6746C16.764 32.6706 16.804 32.5346 16.8854 32.3106C17.4654 31.744 17.7534 31.1906 17.7494 30.6546C17.7854 30.6013 17.8254 30.5426 17.8667 30.4879C17.992 30.3173 18.1227 30.1506 18.2587 29.9933C19.024 29.4626 19.9187 29.1839 20.8547 29.1839C22.8707 29.1839 24.6334 30.4973 25.2187 32.4H23.7654C23.3961 31.244 22.3214 30.4519 21.0934 30.4519C19.8294 30.4519 18.7187 31.3026 18.3854 32.5213C18.372 32.5666 18.372 32.6106 18.3854 32.656C18.3854 32.6653 18.3854 32.6693 18.3854 32.6786C18.3854 32.832 18.5107 32.9573 18.664 32.9573H21.1027C21.2561 32.9573 21.3814 32.832 21.3814 32.6786C21.3814 32.5253 21.2561 32.4 21.1027 32.4H20.216C20.4094 32.1306 20.7241 31.9586 21.0747 31.9586C21.5561 31.9586 21.9747 32.2826 22.0961 32.7506C22.1281 32.876 22.2401 32.9573 22.3654 32.9573C22.3881 32.9573 22.4107 32.9533 22.4334 32.948C22.5814 32.912 22.6721 32.7586 22.6361 32.6106C22.4521 31.9 21.8134 31.4 21.0747 31.4C20.4174 31.4 19.8334 31.8 19.5854 32.3986H19.0227C19.364 31.5666 20.1827 31.0079 21.1014 31.0079C22.1267 31.0079 23.0227 31.7013 23.2787 32.6946C23.2827 32.7173 23.2961 32.74 23.3054 32.7626C23.3414 32.8746 23.4454 32.956 23.5707 32.956H30.1708C30.3241 32.956 30.4494 32.8306 30.4494 32.6773C30.4494 32.6733 30.4494 32.664 30.4494 32.66C30.4494 32.656 30.4494 32.6466 30.4494 32.6426V32.5893C30.4534 32.5626 30.4534 32.536 30.4534 32.508C30.4534 32.504 30.4534 32.4986 30.4494 32.4946V30.3853C30.4494 30.2319 30.3241 30.1066 30.1708 30.1066C30.0174 30.1066 29.8921 30.2319 29.8921 30.3853V32.2746C29.4241 32.2386 29.1321 31.892 28.7721 31.2719C28.6548 31.0746 28.4121 30.7013 28.0521 30.3946C28.3001 30.3413 28.5374 30.2239 28.7588 30.0386C28.8761 29.9399 28.8934 29.7639 28.7948 29.6466C28.6961 29.5293 28.5201 29.5119 28.4028 29.6106C27.8268 30.0879 27.3094 29.7946 27.1121 29.6466C26.7294 29.3586 26.4468 28.7786 26.6668 28.2839C26.9508 27.6493 27.4041 27.4826 28.1468 27.4066C28.2414 27.3973 28.3668 27.3799 28.5161 27.3479C28.5428 27.3519 28.5748 27.3519 28.6054 27.3479C28.6148 27.3479 29.4921 27.1866 30.1668 27.7439C30.6081 28.1079 30.8681 28.6933 30.9454 29.4986C30.6401 29.3546 30.3108 29.2786 30.2081 29.2559C30.2041 29.2559 30.2041 29.2559 30.1988 29.2559C29.2761 29.0533 29.0241 28.5773 28.9574 28.2973C28.9308 28.1799 28.9308 28.0999 28.9348 28.0906C28.9481 27.9373 28.8361 27.8026 28.6828 27.7893C28.5294 27.7759 28.3948 27.8879 28.3814 28.0413C28.3361 28.5133 28.6374 29.4853 30.0868 29.7999C30.4601 29.8813 30.9321 30.0653 31.0174 30.2053C31.0174 30.2053 31.0174 30.2093 31.0214 30.2093C31.0348 30.2266 31.0481 30.2453 31.0614 30.2586C31.0654 30.2626 31.0708 30.2626 31.0748 30.2679C31.0881 30.2773 31.1014 30.2906 31.1148 30.2946C31.1188 30.2986 31.1281 30.3039 31.1321 30.3039C31.1454 30.3133 31.1588 30.3173 31.1721 30.3213C31.1761 30.3213 31.1854 30.3253 31.1894 30.3253C31.2068 30.3293 31.2294 30.3346 31.2521 30.3346C31.2694 30.3346 31.2841 30.3346 31.3014 30.3306C31.3054 30.3306 31.3108 30.3306 31.3148 30.3266C31.3281 30.3226 31.3414 30.3173 31.3601 30.3133H31.3641C31.3774 30.3093 31.3868 30.2999 31.4001 30.2959L31.4041 30.2919C31.4134 30.2879 31.4214 30.2786 31.4268 30.2746C31.4308 30.2706 31.4401 30.2653 31.4441 30.2573C31.4481 30.2533 31.4574 30.2439 31.4614 30.2399C31.4654 30.2306 31.4748 30.2266 31.4788 30.2173C31.4828 30.2079 31.4881 30.2039 31.4921 30.1946C31.4961 30.1853 31.5014 30.1813 31.5054 30.1719C31.5094 30.1626 31.5094 30.1546 31.5148 30.1453C31.5188 30.1359 31.5188 30.1279 31.5241 30.1186C31.5241 30.1093 31.5281 30.1013 31.5281 30.0959C31.5281 30.0866 31.5321 30.0786 31.5321 30.0639V30.0533C31.5308 28.7813 31.1894 27.8586 30.5188 27.3053ZM7.17598 32.3933H4.24796C4.49596 32.1413 4.67063 31.84 4.8053 31.6066C4.92263 31.404 5.35463 30.7293 5.9653 30.5546C6.68531 30.3426 7.35998 30.5906 7.69331 31.1613C7.47331 31.5426 7.29731 31.9573 7.17598 32.3933ZM7.25198 29.9773C6.99598 29.9773 6.78797 29.7706 6.78797 29.5133C6.78797 29.2559 6.99464 29.0493 7.25198 29.0493C7.50798 29.0493 7.71598 29.2559 7.71598 29.5133C7.71598 29.7706 7.50398 29.9773 7.25198 29.9773ZM23.7534 26.1853C21.1267 25.8799 19.228 27.0079 18.0947 28.0066C17.604 28.4386 17.2174 28.8839 16.9254 29.2613C16.872 29.2253 16.8214 29.1893 16.7774 29.1666V28.3746C18.9054 26.2373 21.0201 25.5986 22.4227 25.4413C23.3534 25.3373 24.1054 25.4239 24.5547 25.5093C24.2974 25.7493 24.0321 25.9733 23.7534 26.1853ZM27.0508 22.2626C26.7814 22.7799 26.4708 23.2746 26.1281 23.7519C25.7721 23.6399 25.3267 23.5359 24.7921 23.4866C25.9841 21.9746 26.7401 20.1706 26.9828 18.2679C27.3694 18.2225 27.9054 18.0559 28.3148 17.7905C28.2068 19.3519 27.7841 20.8546 27.0508 22.2626ZM25.1574 17.2425L25.4814 17.2292C25.5894 17.7105 25.9534 18.0972 26.4308 18.2279C26.1788 20.1532 25.3787 21.9706 24.1001 23.4546C23.4841 23.4546 22.7681 23.5266 21.9587 23.7026C23.8481 22.1639 25.0801 19.8466 25.1574 17.2425ZM19.8707 24.3492C19.6907 24.4212 19.5654 24.4799 19.5014 24.5066C18.7547 24.8039 17.9534 24.9972 17.1174 25.0599L24.5801 17.5972C24.3561 20.6026 22.4841 23.1492 19.8707 24.3492ZM28.3414 16.9412C28.3321 17.1932 27.6441 17.6025 27.0374 17.7012C26.9521 17.7145 26.8668 17.7239 26.7854 17.7239C26.6774 17.7239 26.5734 17.7012 26.4801 17.6612C26.1961 17.5399 25.9987 17.2612 25.9987 16.9372C25.9987 16.6132 26.1961 16.3345 26.4801 16.2132C26.5748 16.1732 26.6774 16.1505 26.7854 16.1505C26.8668 16.1505 26.9521 16.1599 27.0374 16.1732C27.6441 16.2719 28.3281 16.6812 28.3414 16.9292C28.3414 16.9319 28.3414 16.9359 28.3414 16.9412ZM25.7374 9.82383L25.8547 9.98116C26.8761 11.3438 28.0721 13.4545 28.3014 16.0812C27.8961 15.8199 27.3654 15.6532 26.9828 15.6092C26.6948 13.3332 25.6827 11.2772 24.1841 9.68916C24.2467 9.5585 24.2827 9.41049 24.2827 9.25716C24.2827 9.05049 24.2201 8.85716 24.1161 8.69982L25.3934 7.24248C25.1521 8.16782 25.2694 9.04516 25.7374 9.82383ZM22.0081 6.67048L22.0667 6.71048L22.0974 6.72915C22.5427 6.95448 23.0201 7.06648 23.5147 7.06648C24.0361 7.06648 24.5814 6.94115 25.1294 6.68915L23.6894 8.33049C23.5587 8.26782 23.4147 8.23582 23.2574 8.23582C23.0547 8.23582 22.8707 8.29449 22.7134 8.39316C21.2961 7.35848 19.6187 6.67048 17.792 6.44515C17.7467 6.11714 17.6574 5.64914 17.5227 5.19047C18.9667 5.35181 20.4734 5.84781 22.0081 6.67048ZM23.7267 9.25716C23.7267 9.45983 23.5921 9.6345 23.4067 9.6985C23.3614 9.71183 23.3121 9.72116 23.2627 9.72116C23.2494 9.72116 23.2307 9.72116 23.2174 9.72116C23.0107 9.70383 22.8441 9.54516 22.8081 9.34783C22.8041 9.32116 22.7987 9.28916 22.7987 9.26249C22.7987 9.23049 22.8027 9.20383 22.8081 9.17316C22.8481 8.97049 23.0201 8.81316 23.2307 8.79983C23.2401 8.79983 23.2534 8.79983 23.2627 8.79983C23.2721 8.79983 23.2801 8.79983 23.2894 8.79983C23.4961 8.81316 23.6721 8.96116 23.7174 9.15983C23.7214 9.18649 23.7267 9.20916 23.7267 9.23583C23.7214 9.23849 23.7267 9.24783 23.7267 9.25716ZM17.8147 7.01182C19.488 7.23182 21.0361 7.87049 22.3454 8.81583C22.2774 8.95049 22.2414 9.09983 22.2414 9.26116C22.2414 9.46383 22.3001 9.64783 22.4027 9.8105L20.1627 12.3652C20.0587 12.4825 20.0734 12.6572 20.1894 12.7572C20.2427 12.8025 20.3067 12.8252 20.3734 12.8252C20.4494 12.8252 20.5267 12.7932 20.5854 12.7305L22.8214 10.1798C22.9561 10.2478 23.1054 10.2838 23.2667 10.2838C23.4734 10.2838 23.6627 10.2212 23.8201 10.1172C25.2147 11.6105 26.1547 13.5265 26.4334 15.6505C25.9521 15.7852 25.5787 16.1812 25.4801 16.6759L25.1601 16.6892C25.0921 14.6332 24.2961 12.6718 22.9067 11.1465C22.8027 11.0345 22.6281 11.0252 22.5147 11.1292C22.4027 11.2332 22.3934 11.4078 22.4974 11.5212C23.7214 12.8612 24.4494 14.5625 24.5894 16.3612L21.5974 13.3785C21.4894 13.2705 21.3134 13.2705 21.2054 13.3785C21.0974 13.4865 21.0974 13.6625 21.2054 13.7705L24.4174 16.9825L16.5 24.8999L8.58265 16.9825L11.768 13.7972C11.876 13.6892 11.876 13.5132 11.768 13.4052C11.66 13.2972 11.484 13.2972 11.376 13.4052L8.42265 16.3599C8.57998 14.3132 9.49732 12.4732 10.8973 11.1332L12.292 12.7252C12.3453 12.7878 12.4227 12.8198 12.504 12.8198C12.5667 12.8198 12.6347 12.7972 12.688 12.7518C12.8053 12.6478 12.8133 12.4732 12.7147 12.3598L11.3147 10.7638C12.5747 9.71183 14.1533 9.03183 15.8854 8.90116L13.5107 11.2545C13.4027 11.3625 13.4027 11.5385 13.5107 11.6465C13.564 11.6998 13.636 11.7278 13.708 11.7278C13.78 11.7278 13.848 11.7012 13.9053 11.6465L16.5147 9.06383L19.048 11.5972C19.156 11.7052 19.332 11.7052 19.44 11.5972C19.548 11.4892 19.548 11.3132 19.44 11.2052L17.1374 8.90249C18.564 9.01049 19.9214 9.48783 21.1054 10.3012C21.2307 10.3865 21.4067 10.3545 21.4921 10.2292C21.5774 10.1038 21.5454 9.92783 21.4201 9.8425C20.052 8.90249 18.46 8.37982 16.796 8.33049V8.13182C17.316 8.00649 17.7347 7.56115 17.8147 7.01182ZM9.68666 10.3545C9.84399 10.3545 9.99199 10.3185 10.1227 10.2558L10.5227 10.7145C8.93465 12.2305 7.92265 14.3399 7.84131 16.6839L7.61598 16.6705C7.50798 16.1439 7.09864 15.7305 6.57197 15.6225C6.84664 13.5399 7.76398 11.6598 9.11332 10.1838C9.28132 10.2918 9.47466 10.3545 9.68666 10.3545ZM9.22265 9.33849C9.22265 9.31583 9.22265 9.29849 9.22665 9.27583C9.22665 9.26249 9.23065 9.25316 9.23065 9.23983C9.27066 9.04249 9.44266 8.88916 9.64932 8.87583C9.65866 8.87583 9.66666 8.87583 9.67199 8.87583C9.67732 8.87583 9.67599 8.87583 9.68132 8.87583C9.89332 8.87583 10.0733 9.01983 10.1267 9.21716C10.136 9.25716 10.144 9.29849 10.144 9.33849C10.144 9.37049 10.14 9.40116 10.1347 9.43316C10.0947 9.6305 9.92266 9.78383 9.71599 9.79716C9.70266 9.79716 9.69332 9.79716 9.67999 9.79716C9.62132 9.79716 9.56266 9.78383 9.51332 9.76516C9.34932 9.7025 9.22265 9.53183 9.22265 9.33849ZM7.61198 17.2279L7.84131 17.2412C7.91731 19.8506 9.15465 22.1719 11.0493 23.7106C10.2347 23.5306 9.51999 23.4586 8.89865 23.4546C7.63065 21.9746 6.82531 20.1666 6.57331 18.2492C7.09064 18.1412 7.49998 17.7412 7.61198 17.2279ZM8.41732 17.5972L15.88 25.0599C11.904 24.7586 8.71865 21.5746 8.41732 17.5972ZM15.7374 6.39581C15.8587 5.55447 16.272 4.43047 16.488 4.3398C16.736 4.43447 17.1174 5.59981 17.2347 6.39048C17.2574 6.54915 17.2707 6.69315 17.2707 6.81048C17.2707 6.85981 17.2667 6.90515 17.2574 6.95048C17.1894 7.31448 16.8707 7.59315 16.484 7.59315C16.0974 7.59315 15.7774 7.31448 15.7107 6.95048C15.7014 6.90515 15.6974 6.85581 15.6974 6.81048C15.7014 6.68781 15.7147 6.54915 15.7374 6.39581ZM16.2227 8.12782V8.32116C14.216 8.38382 12.3813 9.13583 10.9413 10.3412L10.5453 9.8865C10.6493 9.72916 10.712 9.53583 10.712 9.33316C10.712 9.16249 10.6667 8.99983 10.5947 8.86116C11.9133 7.89449 13.4733 7.24115 15.1694 7.01182C15.2467 7.57049 15.6734 8.01982 16.2227 8.12782ZM9.35332 7.06648C9.84799 7.06648 10.3253 6.95448 10.7747 6.72915C10.8013 6.71581 13.3707 5.37981 15.448 5.19981C15.3134 5.65447 15.2227 6.12648 15.1787 6.45048C13.3307 6.67981 11.6253 7.39448 10.1987 8.45582C10.0467 8.36649 9.87466 8.31716 9.68666 8.31716C9.52932 8.31716 9.38132 8.35316 9.25065 8.41582L7.73865 6.69315C8.29198 6.93982 8.83199 7.06648 9.35332 7.06648ZM7.10798 9.8505L7.13064 9.8185C7.59865 9.04516 7.71598 8.16249 7.48131 7.23582L8.83065 8.77849C8.72798 8.93716 8.66532 9.13049 8.66532 9.33316C8.66532 9.48116 8.69732 9.62116 8.75465 9.75183C7.28398 11.3358 6.2933 13.3692 6.01064 15.6185C5.61063 15.6812 5.07996 15.8519 4.67863 16.1092C4.8373 13.7332 5.6333 11.6772 7.10798 9.8505ZM4.6573 16.9319C4.66663 16.6705 5.39063 16.3105 5.9613 16.1945C6.08664 16.1679 6.20397 16.1545 6.30264 16.1545C6.37864 16.1545 6.44664 16.1639 6.51864 16.1865C6.84664 16.2812 7.08931 16.5825 7.08931 16.9425C7.08931 17.3025 6.84664 17.6039 6.51864 17.6985C6.45064 17.7159 6.37864 17.7305 6.30264 17.7305C6.19864 17.7305 6.08264 17.7172 5.9613 17.6905C5.39063 17.5692 4.6653 17.2092 4.6573 16.9479C4.6573 16.9359 4.6573 16.9359 4.6573 16.9319ZM4.68396 17.7599C5.08397 18.0212 5.61997 18.1919 6.01597 18.2545C6.25464 20.1626 7.01064 21.9706 8.20665 23.4812C7.67198 23.5306 7.22531 23.6292 6.86664 23.7426C5.57463 21.9706 4.82796 19.9226 4.68396 17.7599ZM7.26664 24.2639C7.25331 24.2466 7.23998 24.2319 7.22664 24.2146C8.58132 23.8412 10.0613 24.0386 11.1 24.2866C12.3547 24.5879 13.2733 25.0239 13.2813 25.0293L13.2853 25.0199C14.28 25.4159 15.364 25.6359 16.4974 25.6359C17.6267 25.6359 18.7067 25.4199 19.696 25.0239C19.696 25.0239 19.7054 25.0199 19.7227 25.0106C19.84 24.9613 19.9614 24.9119 20.0734 24.8573C20.4561 24.6999 21.0987 24.4652 21.8734 24.2812C22.9214 24.0292 24.4067 23.8319 25.7601 24.2092C25.5267 24.4972 25.2827 24.7719 25.0227 25.0373C24.6454 24.9333 23.6827 24.7359 22.3827 24.8759C20.9707 25.0292 18.892 25.6319 16.768 27.5933V27.1026C16.768 26.9493 16.6427 26.8239 16.4894 26.8239C16.336 26.8239 16.2107 26.9493 16.2107 27.1026V27.5666C14.1013 25.6279 12.032 25.0292 10.628 24.8759C9.29599 24.7319 8.31998 24.9479 7.96531 25.0466C7.72931 24.8039 7.49064 24.5386 7.26664 24.2639ZM8.44932 25.5146C8.89865 25.4253 9.65999 25.3346 10.608 25.4426C13.1053 25.7213 15.0214 27.1479 16.2227 28.3439V29.1586C16.1827 29.1813 16.1374 29.2079 16.088 29.2439C15.796 28.8706 15.4134 28.4346 14.932 28.0119C13.7987 27.0093 11.8907 25.8746 9.25465 26.1906V26.1946C8.97599 25.9786 8.70532 25.7533 8.44932 25.5146ZM15.436 29.9239C14.9094 29.2493 14.3333 28.7413 13.7587 28.3586L13.7627 28.3453C13.7493 28.3413 13.736 28.3359 13.7227 28.3359C12.764 27.7106 11.8013 27.4359 11.028 27.3239C10.664 27.1346 10.304 26.9239 9.95732 26.6946C11.6533 26.6453 13.192 27.2213 14.5507 28.4133C15.0187 28.8226 15.388 29.2453 15.6667 29.6093C15.58 29.7026 15.5027 29.8066 15.436 29.9239ZM16.78 31.6106C16.712 31.692 16.64 31.772 16.56 31.8533C16.5427 31.8706 16.52 31.8933 16.4974 31.912L16.4934 31.916L16.4894 31.92V31.9106C16.48 31.9013 16.4667 31.8933 16.4574 31.8786C16.368 31.7933 16.2907 31.708 16.2187 31.6226C15.8907 31.2306 15.7467 30.8666 15.796 30.5346C15.8 30.5079 15.8054 30.4813 15.8134 30.4533C15.8494 30.3093 15.9174 30.1839 15.9974 30.0759C16.0654 29.9866 16.1414 29.9093 16.2174 29.8426C16.2854 29.7839 16.352 29.7346 16.4107 29.6946C16.4374 29.6773 16.46 29.6626 16.4827 29.6493C16.4827 29.6493 16.4867 29.6493 16.4867 29.6453H16.4907C16.5227 29.6626 16.5534 29.6853 16.5947 29.7133C16.648 29.7493 16.712 29.7986 16.7747 29.8533C16.856 29.9253 16.936 30.0106 17.004 30.1053C17.0854 30.2226 17.152 30.3533 17.18 30.5013C17.18 30.5106 17.184 30.5239 17.1894 30.5333C17.24 30.8586 17.1 31.2186 16.78 31.6106ZM17.8787 29.5813C17.8694 29.5906 17.8614 29.5986 17.856 29.6079C17.752 29.7253 17.6587 29.8413 17.572 29.9546C17.504 29.8373 17.428 29.7293 17.3467 29.6346C17.6254 29.2706 18.004 28.8333 18.48 28.4159C19.8294 27.2279 21.3641 26.6519 23.0467 26.6933C22.6961 26.9226 22.3361 27.1386 21.9667 27.3279C20.0414 27.6199 18.724 28.6186 17.8787 29.5813ZM25.7281 29.0506C25.9841 29.0506 26.1921 29.2573 26.1921 29.5146C26.1921 29.7719 25.9854 29.9786 25.7281 29.9786C25.4707 29.9786 25.2641 29.7719 25.2641 29.5146C25.2654 29.2626 25.4721 29.0506 25.7281 29.0506ZM27.1321 30.4946C27.7441 30.6746 28.1761 31.3453 28.2921 31.5466C28.4361 31.7986 28.6294 32.132 28.9134 32.392H25.8041C25.6867 31.9693 25.5201 31.5693 25.3094 31.2C25.6521 30.5893 26.4161 30.2839 27.1321 30.4946ZM3.42929 10.9532C3.42929 11.4078 3.79862 11.7812 4.25729 11.7812C4.71596 11.7812 5.08396 11.4118 5.08396 10.9532C5.08396 10.4985 4.71463 10.1252 4.25596 10.1252C3.79729 10.1252 3.42929 10.4985 3.42929 10.9532ZM4.52663 10.9532C4.52663 11.1012 4.40529 11.2225 4.25729 11.2225C4.10929 11.2225 3.98796 11.1012 3.98796 10.9532C3.98796 10.8052 4.10929 10.6838 4.25729 10.6838C4.40529 10.6825 4.52663 10.8052 4.52663 10.9532ZM29.4801 10.9532C29.4801 10.4985 29.1108 10.1252 28.6521 10.1252C28.1974 10.1252 27.8241 10.4945 27.8241 10.9532C27.8241 11.4078 28.1934 11.7812 28.6521 11.7812C29.1108 11.7812 29.4801 11.4118 29.4801 10.9532ZM28.3828 10.9532C28.3828 10.8052 28.5041 10.6838 28.6521 10.6838C28.8001 10.6838 28.9214 10.8052 28.9214 10.9532C28.9214 11.1012 28.8001 11.2225 28.6521 11.2225C28.5041 11.2278 28.3828 11.1065 28.3828 10.9532ZM30.2761 13.0132C30.1721 12.9732 30.0508 12.9958 29.9708 13.0758C29.6068 13.4492 29.0081 13.4359 28.9988 13.4359C28.9948 13.4359 28.9894 13.4359 28.9894 13.4359C28.8414 13.4359 28.7201 13.5532 28.7108 13.7012C28.7068 13.8545 28.8228 13.9852 28.9761 13.9892C29.0028 13.9892 29.4441 14.0025 29.8934 13.7959V18.3345C29.8934 18.4879 30.0188 18.6132 30.1721 18.6132C30.3254 18.6132 30.4508 18.4879 30.4508 18.3345V13.2692C30.4468 13.1572 30.3801 13.0532 30.2761 13.0132ZM2.80395 18.6145C2.95729 18.6145 3.08262 18.4892 3.08262 18.3359V13.7959C3.53196 14.0025 3.97329 13.9892 3.99996 13.9892C4.15329 13.9852 4.27463 13.8545 4.26529 13.7012C4.26129 13.5492 4.13063 13.4279 3.97729 13.4359C3.97329 13.4359 3.37062 13.4492 3.00529 13.0758C2.92529 12.9958 2.80795 12.9732 2.69995 13.0132C2.59595 13.0532 2.52928 13.1572 2.52928 13.2692V18.3385C2.52395 18.4932 2.65062 18.6145 2.80395 18.6145ZM30.4961 23.2426C30.4961 23.0892 30.3708 22.9639 30.2174 22.9639H28.4174C28.2641 22.9639 28.1388 23.0892 28.1388 23.2426C28.1388 23.3959 28.2641 23.5212 28.4174 23.5212H30.2174C30.3708 23.5226 30.4961 23.3999 30.4961 23.2426ZM28.6294 24.3092C28.7828 24.3092 28.9081 24.1839 28.9081 24.0306C28.9081 23.8772 28.7828 23.7519 28.6294 23.7519H27.9361C27.7828 23.7519 27.6574 23.8772 27.6574 24.0306C27.6574 24.1839 27.7828 24.3092 27.9361 24.3092H28.6294ZM29.3041 24.8226C29.3041 24.6692 29.1788 24.5439 29.0254 24.5439H27.3068C27.1534 24.5439 27.0281 24.6692 27.0281 24.8226C27.0281 24.9759 27.1534 25.1012 27.3068 25.1012H29.0254C29.1788 25.1012 29.3041 24.9799 29.3041 24.8226ZM28.2161 25.6186C28.2161 25.4653 28.0908 25.3399 27.9374 25.3399H26.5921C26.4387 25.3399 26.3134 25.4653 26.3134 25.6186C26.3134 25.7719 26.4387 25.8973 26.5921 25.8973H27.9374C28.0894 25.8973 28.2161 25.7719 28.2161 25.6186ZM25.7187 26.1359C25.5654 26.1359 25.4401 26.2613 25.4401 26.4146C25.4401 26.5679 25.5654 26.6933 25.7187 26.6933H26.4841C26.6374 26.6933 26.7628 26.5679 26.7628 26.4146C26.7628 26.2613 26.6374 26.1359 26.4841 26.1359H25.7187ZM30.2174 21.3759H29.2148C29.0614 21.3759 28.9361 21.5012 28.9361 21.6546C28.9361 21.8079 29.0614 21.9332 29.2148 21.9332H30.2174C30.3708 21.9332 30.4961 21.8079 30.4961 21.6546C30.4961 21.5026 30.3708 21.3759 30.2174 21.3759ZM30.2174 22.1719H28.8188C28.6654 22.1719 28.5401 22.2972 28.5401 22.4506C28.5401 22.6039 28.6654 22.7292 28.8188 22.7292H30.2174C30.3708 22.7292 30.4961 22.6039 30.4961 22.4506C30.4961 22.2972 30.3708 22.1719 30.2174 22.1719ZM30.2174 19.7879H29.7721C29.6188 19.7879 29.4934 19.9132 29.4934 20.0666C29.4934 20.2199 29.6188 20.3452 29.7721 20.3452H30.2174C30.3708 20.3452 30.4961 20.2199 30.4961 20.0666C30.4961 19.9146 30.3708 19.7879 30.2174 19.7879ZM30.2174 20.5839H29.5334C29.3801 20.5839 29.2548 20.7092 29.2548 20.8626C29.2548 21.0159 29.3801 21.1412 29.5334 21.1412H30.2174C30.3708 21.1412 30.4961 21.0159 30.4961 20.8626C30.4961 20.7106 30.3708 20.5839 30.2174 20.5839ZM2.79462 18.9745C2.94929 18.9745 3.07329 19.0999 3.07329 19.2532C3.07329 19.4079 2.94795 19.5319 2.79462 19.5319C2.63995 19.5319 2.51595 19.4066 2.51595 19.2532C2.51595 19.0985 2.63995 18.9745 2.79462 18.9745ZM3.91863 25.3479C4.07329 25.3479 4.19729 25.4733 4.19729 25.6266C4.19729 25.7813 4.07196 25.9053 3.91863 25.9053C3.76396 25.9053 3.63996 25.7799 3.63996 25.6266C3.63996 25.4733 3.76529 25.3479 3.91863 25.3479ZM5.7093 26.1453C5.86397 26.1453 5.98797 26.2706 5.98797 26.4239C5.98797 26.5786 5.86264 26.7026 5.7093 26.7026C5.55597 26.7026 5.43063 26.5773 5.43063 26.4239C5.43063 26.2693 5.55597 26.1453 5.7093 26.1453ZM2.76795 23.5306H4.56796C4.7213 23.5306 4.84663 23.4052 4.84663 23.2519C4.84663 23.0986 4.71996 22.9732 4.56663 22.9732H2.76662C2.61328 22.9732 2.48795 23.0986 2.48795 23.2519C2.48795 23.4092 2.61462 23.5306 2.76795 23.5306ZM5.04796 23.7652H4.35463C4.20129 23.7652 4.07596 23.8906 4.07596 24.0439C4.07596 24.1972 4.20129 24.3226 4.35463 24.3226H5.04796C5.2013 24.3226 5.32663 24.1972 5.32663 24.0439C5.32663 23.8906 5.2013 23.7652 5.04796 23.7652ZM5.67863 24.5572H3.95996C3.80662 24.5572 3.68129 24.6826 3.68129 24.8359C3.68129 24.9892 3.80662 25.1146 3.95996 25.1146H5.67863C5.83197 25.1146 5.9573 24.9892 5.9573 24.8359C5.9573 24.6786 5.83064 24.5572 5.67863 24.5572ZM6.39331 25.3479H5.04796C4.89463 25.3479 4.7693 25.4733 4.7693 25.6266C4.7693 25.7799 4.89463 25.9053 5.04796 25.9053H6.39331C6.54664 25.9053 6.67197 25.7799 6.67197 25.6266C6.67197 25.4746 6.54664 25.3479 6.39331 25.3479ZM6.22264 26.4239C6.22264 26.5773 6.34797 26.7026 6.50131 26.7026H7.26664C7.41998 26.7026 7.54531 26.5773 7.54531 26.4239C7.54531 26.2706 7.41998 26.1453 7.26664 26.1453H6.50131C6.34797 26.1453 6.22264 26.2706 6.22264 26.4239ZM2.76795 21.9426H3.77062C3.92396 21.9426 4.04929 21.8172 4.04929 21.6639C4.04929 21.5106 3.92396 21.3852 3.77062 21.3852H2.76795C2.61462 21.3852 2.48928 21.5106 2.48928 21.6639C2.48795 21.8172 2.61462 21.9426 2.76795 21.9426ZM2.76795 22.7399H4.16663C4.31996 22.7399 4.44529 22.6146 4.44529 22.4612C4.44529 22.3079 4.31996 22.1826 4.16663 22.1826H2.76795C2.61462 22.1826 2.48928 22.3079 2.48928 22.4612C2.48928 22.6146 2.61462 22.7399 2.76795 22.7399ZM2.76795 20.3546H3.21329C3.36662 20.3546 3.49196 20.2292 3.49196 20.0759C3.49196 19.9226 3.36662 19.7972 3.21329 19.7972H2.76795C2.61462 19.7972 2.48928 19.9226 2.48928 20.0759C2.48928 20.2292 2.61462 20.3546 2.76795 20.3546ZM2.76795 21.1466H3.45196C3.60529 21.1466 3.73062 21.0212 3.73062 20.8679C3.73062 20.7146 3.60529 20.5892 3.45196 20.5892H2.76795C2.61462 20.5892 2.48928 20.7146 2.48928 20.8679C2.48795 21.0252 2.61462 21.1466 2.76795 21.1466ZM16.4934 31.916C16.4974 31.912 16.492 31.912 16.492 31.9066L16.4934 31.916ZM29.1428 6.52648C29.1468 6.52648 29.1468 6.52648 29.1428 6.52648C29.2681 6.52648 29.3814 6.44114 29.4121 6.31448C29.5108 5.91848 29.4708 5.58114 29.2814 5.30247C28.9801 4.85314 28.4268 4.7678 28.3641 4.75847C28.2201 4.74114 28.0854 4.83047 28.0534 4.97447C27.9494 5.44647 28.0081 5.82514 28.2334 6.10381C28.5668 6.50781 29.0881 6.52248 29.1428 6.52648ZM28.8281 5.61714C28.8814 5.70248 28.9134 5.80114 28.9134 5.91848C28.8321 5.88648 28.7428 5.83714 28.6801 5.75714C28.6081 5.66781 28.5721 5.55047 28.5721 5.40114C28.6614 5.44647 28.7601 5.51847 28.8281 5.61714ZM27.3348 2.50512C27.0334 2.05579 26.4801 1.97045 26.4174 1.96112C26.2734 1.94379 26.1387 2.03312 26.1067 2.17712C26.0027 2.64912 26.0614 3.02779 26.2867 3.30646C26.6107 3.7118 27.1321 3.72513 27.1908 3.72513C27.3161 3.72513 27.4294 3.6398 27.4601 3.51313C27.5641 3.12513 27.5228 2.78379 27.3348 2.50512ZM26.7268 2.95846C26.6548 2.86913 26.6188 2.75179 26.6188 2.60246C26.7134 2.64779 26.8121 2.71979 26.8748 2.81846C26.9281 2.90379 26.9601 3.00246 26.9601 3.11979C26.8801 3.08913 26.7894 3.03979 26.7268 2.95846ZM4.67463 4.75847C4.61196 4.7678 4.06263 4.85314 3.75729 5.30247C3.57329 5.58114 3.52796 5.91848 3.62662 6.31448C3.65862 6.43581 3.77062 6.52648 3.89729 6.52648C3.95596 6.52648 4.47729 6.51315 4.8013 6.10781C5.0253 5.82914 5.08396 5.44647 4.9813 4.97847C4.9533 4.83447 4.81863 4.74114 4.67463 4.75847ZM4.37329 5.75714C4.31063 5.83848 4.21996 5.88781 4.13463 5.91848C4.13463 5.80114 4.16663 5.69847 4.21996 5.61714C4.28796 5.51847 4.38663 5.44647 4.47596 5.40114C4.47729 5.55047 4.44129 5.66781 4.37329 5.75714ZM6.58264 1.95979C6.51997 1.96912 5.97064 2.05445 5.66397 2.50512C5.47997 2.78379 5.43463 3.12113 5.53463 3.51713C5.5653 3.63846 5.67863 3.7278 5.80397 3.7278C5.86264 3.7278 6.38397 3.71446 6.70797 3.30913C6.93331 3.03046 6.99198 2.64779 6.88798 2.17979C6.85731 2.03712 6.72664 1.94245 6.58264 1.95979ZM6.27597 2.95846C6.2133 3.03979 6.12397 3.08913 6.03864 3.12113C6.03864 3.00379 6.07064 2.90113 6.12397 2.81979C6.19064 2.72112 6.28931 2.64912 6.37997 2.60379C6.37997 2.75179 6.34797 2.86913 6.27597 2.95846ZM25.2694 15.0425C25.2867 15.1865 25.4041 15.2905 25.5441 15.2905C25.5534 15.2905 25.5667 15.2905 25.5761 15.2905C25.7294 15.2732 25.8374 15.1332 25.8187 14.9799C25.5401 12.5505 23.8801 10.8318 23.8081 10.7598C23.7001 10.6518 23.5241 10.6478 23.4161 10.7558C23.3081 10.8638 23.3041 11.0398 23.4121 11.1478C23.4294 11.1638 25.0134 12.8065 25.2694 15.0425ZM7.45464 15.2852C7.46398 15.2852 7.47731 15.2852 7.48664 15.2852C7.62665 15.2852 7.74798 15.1812 7.76131 15.0372C8.01731 12.8025 9.60132 11.1598 9.61466 11.1465C9.72266 11.0385 9.71866 10.8585 9.61066 10.7545C9.50132 10.6465 9.32132 10.6465 9.21865 10.7598C9.14665 10.8318 7.49064 12.5505 7.20798 14.9799C7.19464 15.1319 7.30264 15.2665 7.45464 15.2852Z" fill="#00447F"/>
</svg>
