<svg width="35" height="34" viewBox="0 0 35 34" fill="none" xmlns="http://www.w3.org/2000/svg">
<path d="M17.5 2.95996V1.95996C17.5 1.40768 17.0523 0.959961 16.5 0.959961H2.5C1.94772 0.959961 1.5 1.40768 1.5 1.95996V31.96C1.5 32.5122 1.94772 32.96 2.5 32.96H7.5M17.5 2.95996V7.95996C17.5 8.51225 17.9477 8.95996 18.5 8.95996H31M17.5 2.95996H30C30.5523 2.95996 31 3.40768 31 3.95996V8.95996M31 8.95996H32.5C33.0523 8.95996 33.5 9.40768 33.5 9.95996V31.96C33.5 32.5122 33.0523 32.96 32.5 32.96H13.5" stroke="#00447F" stroke-width="1.7" stroke-linecap="round"/>
<path d="M17.5 7.95996V3.95996C17.5 3.40768 17.9477 2.95996 18.5 2.95996H30C30.5523 2.95996 31 3.40768 31 3.95996V7.95996C31 8.51225 30.5523 8.95996 30 8.95996H18.5C17.9477 8.95996 17.5 8.51225 17.5 7.95996Z" fill="#00447F"/>
</svg>
