<svg width="33" height="34" viewBox="0 0 33 34" fill="none" xmlns="http://www.w3.org/2000/svg">
<path d="M6.43628 17.4344C7.63191 20.1655 9.93758 22.5662 11.4976 24.673L19.7006 14.9561M6.43628 17.4344L13.1966 9.39998M6.43628 17.4344C6.43628 17.4344 5.3363 15.2804 5.3363 12.1598C5.3363 9.21042 6.48285 6.63227 7.9541 4.95147M6.43628 17.4344L13.2142 9.37906M19.7006 14.9561L19.7833 14.8582C19.7833 14.8582 19.7554 14.8946 19.7006 14.9561ZM19.7006 14.9561C19.4002 15.2932 18.289 16.3848 16.4984 16.3848C14.1399 16.3848 12.2344 14.5014 12.2344 12.1265C12.2344 10.6274 13.0646 9.56024 13.1966 9.39998M13.1966 9.39998C13.208 9.38614 13.2142 9.37906 13.2142 9.37906M13.1966 9.39998L13.2142 9.37906M13.2142 9.37906L7.9541 4.95147M19.7932 14.8436L26.4077 6.96138C24.983 4.21458 22.6276 2.35192 19.8758 1.46464L13.2603 9.32238M19.7932 14.8436L19.7858 14.8525C19.7858 14.8525 19.7883 14.8495 19.7932 14.8436ZM19.7932 14.8436C19.8835 14.7346 20.7656 13.6307 20.7656 12.095C20.7656 9.66475 18.7191 7.84929 16.5085 7.84929C14.6474 7.84929 13.4916 9.0573 13.2603 9.32238M13.2603 9.32238C13.2318 9.35505 13.2174 9.3734 13.2174 9.3734L13.2603 9.32238ZM7.9541 4.95147C9.59777 2.98498 12.4899 0.959961 16.477 0.959961C18.4114 0.959961 19.8688 1.46779 19.8688 1.46779L13.2111 9.3778L10.8363 7.45996L7.9541 4.95147ZM11.4925 24.6711C12.4183 25.8508 13.2608 27.0935 14.014 28.3902C14.6572 29.6097 14.9252 30.4366 15.3953 31.9059C15.6835 32.7177 15.944 32.96 16.5041 32.96C17.1145 32.96 17.3914 32.5478 17.6053 31.9103C18.0496 30.5228 18.3982 29.4637 18.9482 28.4631C20.0274 26.5313 21.3684 24.8146 22.6861 23.1646C23.0429 22.6977 25.3492 19.9773 26.3875 17.8309C26.3875 17.8309 27.6637 15.473 27.6637 12.18C27.6637 9.09966 26.4051 6.96326 26.4051 6.96326L11.4925 24.6711Z" stroke="#00447F" stroke-width="1.7" stroke-linejoin="round"/>
</svg>
