<svg width="35" height="34" viewBox="0 0 35 34" fill="none" xmlns="http://www.w3.org/2000/svg">
<path d="M21.5 0.959965L2.5 0.959961C1.94772 0.959961 1.5 1.40768 1.5 1.95996L1.49999 31.96C1.49999 32.5122 1.94771 32.96 2.49999 32.96L32.5 32.96C33.0523 32.96 33.5 32.5122 33.5 31.96L33.5 1.95997C33.5 1.40768 33.0523 0.959966 32.5 0.959966L27.5 0.959966" stroke="#00447F" stroke-width="1.7" stroke-linecap="round"/>
<path fill-rule="evenodd" clip-rule="evenodd" d="M14.7728 8.95996C17.4972 8.95996 19.8717 10.4622 21.1176 12.6857C21.4191 12.6337 21.7292 12.6067 22.0456 12.6067C25.058 12.6067 27.5001 15.0557 27.5001 18.0768C27.5001 21.0676 25.1066 23.4978 22.1358 23.5461L22.0456 23.5469L21.6138 23.5468V23.9343C21.6138 24.5008 21.1559 24.96 20.591 24.96H14.4547C13.8898 24.96 13.4319 24.5008 13.4319 23.9343L13.432 23.4232C10.0559 22.7922 7.50012 19.8221 7.50012 16.2534C7.50012 12.2253 10.7562 8.95996 14.7728 8.95996Z" stroke="#00447F" stroke-width="1.7" stroke-linejoin="round"/>
</svg>
