<svg width="35" height="34" viewBox="0 0 35 34" fill="none" xmlns="http://www.w3.org/2000/svg">
<path d="M8.5 3.68953C10.7989 2.12058 13.5262 1.13879 16.4667 0.959961V7.66167C11.7971 8.15562 8.15185 12.1339 8.15185 16.9399C8.15185 22.093 12.3292 26.285 17.4644 26.285C19.6729 26.285 21.7083 25.5107 23.3048 24.2157L28.0143 28.9416C25.1939 31.4514 21.5088 32.96 17.4644 32.96C8.65739 32.96 1.5 25.7777 1.5 16.9399C1.5 14.9756 1.8535 13.0932 2.5 11.3534" stroke="#00447F" stroke-width="1.7" stroke-linecap="round" stroke-linejoin="round"/>
<path d="M33.5 17.3999C33.3047 20.7443 31.9743 23.7957 29.8627 26.1636L25.5419 21.8428C26.5427 20.61 27.2018 19.0721 27.3727 17.3999H33.5Z" fill="#00447F" stroke="#00447F" stroke-width="1.7" stroke-linejoin="round"/>
<path d="M33.5 14.6548H27.3727C26.9577 10.6757 23.7842 7.50223 19.8052 7.08724V0.959961C27.153 1.39937 33.0606 7.30694 33.5 14.6548Z" stroke="#00447F" stroke-width="1.7" stroke-linejoin="round"/>
</svg>
