<svg width="35" height="34" viewBox="0 0 35 34" fill="none" xmlns="http://www.w3.org/2000/svg">
<mask id="mask0_162_6843" style="mask-type:luminance" maskUnits="userSpaceOnUse" x="1" y="0" width="33" height="33">
<path d="M17.5 32.96C26.3366 32.96 33.5 25.7965 33.5 16.96C33.5 8.12341 26.3366 0.959961 17.5 0.959961C8.66344 0.959961 1.5 8.12341 1.5 16.96C1.5 25.7965 8.66344 32.96 17.5 32.96Z" fill="white"/>
</mask>
<g mask="url(#mask0_162_6843)">
<path d="M33.9739 23.5804C26.6165 20.2743 19.0456 10.9815 18.4078 10.5558C17.77 10.1302 16.9145 10.6619 16.9145 10.6619C16.3814 9.80921 15.5287 10.768 15.5287 10.768C11.5821 17.4862 1.02612 23.9 1.02612 23.9C1.02612 23.9 6.09543 33.2231 17.8127 33.2231C29.7256 33.2231 33.9739 23.5804 33.9739 23.5804Z" fill="#00447F"/>
<path d="M10.3024 16.5259C10.3024 16.5259 12.4348 15.5616 12.0077 17.1664C11.5807 18.7712 9.87533 21.1117 10.4084 21.2177C10.9415 21.3238 12.4403 19.8319 12.8618 20.0441C13.2833 20.2562 13.6084 20.1515 13.3949 20.8982C13.1814 21.6448 12.9679 22.1779 13.3949 22.1779C13.822 22.1779 14.1415 21.2136 14.6746 20.2576C15.2077 19.3016 16.0604 19.7245 16.38 20.0441C16.6996 20.3637 17.6597 22.1779 18.4064 21.9644C19.153 21.7508 19.5786 20.7907 19.2591 18.6583C18.9395 16.5259 19.4726 15.8867 19.4726 15.8867C19.4726 15.8867 20.1118 15.5671 21.2854 17.059C22.4591 18.5508 24.5915 20.7907 24.9097 20.6846C25.2279 20.5786 23.4178 18.2326 23.8435 18.0191C24.2691 17.8056 25.9759 18.3387 26.83 19.0853C26.83 19.0853 27.122 20.3072 27.122 19.1349L18.4064 10.5557L16.9131 10.6604L15.5273 10.7664C15.5273 10.7664 12.1152 15.8867 10.3024 16.5259Z" fill="white"/>
<path d="M33.9739 23.8999C26.6165 20.5939 19.0456 10.9815 18.4078 10.5558C17.77 10.1302 16.9145 10.6619 16.9145 10.6619C16.3814 9.80921 15.5287 10.768 15.5287 10.768C11.5821 17.4862 1.02612 23.8999 1.02612 23.8999" stroke="#00447F" stroke-width="1.7" stroke-miterlimit="10"/>
</g>
<path d="M17.5 32.96C26.3366 32.96 33.5 25.7965 33.5 16.96C33.5 8.12341 26.3366 0.959961 17.5 0.959961C8.66344 0.959961 1.5 8.12341 1.5 16.96C1.5 25.7965 8.66344 32.96 17.5 32.96Z" stroke="#00447F" stroke-width="1.7" stroke-miterlimit="10"/>
</svg>
