<svg width="35" height="34" viewBox="0 0 35 34" fill="none" xmlns="http://www.w3.org/2000/svg">
<rect x="1.5" y="0.959961" width="32" height="7" rx="1" stroke="#00447F" stroke-width="1.7" stroke-linecap="round" stroke-linejoin="round"/>
<rect x="1.5" y="13.96" width="32" height="7" rx="1" stroke="#00447F" stroke-width="1.7" stroke-linecap="round" stroke-linejoin="round"/>
<path d="M21.5 32.96L2.5 32.96C1.94772 32.96 1.5 32.5122 1.5 31.96L1.5 26.96C1.5 26.4077 1.94772 25.96 2.5 25.96L32.5 25.96C33.0523 25.96 33.5 26.4077 33.5 26.96L33.5 31.96C33.5 32.5122 33.0523 32.96 32.5 32.96L27.5 32.96" stroke="#00447F" stroke-width="1.7" stroke-linecap="round" stroke-linejoin="round"/>
<rect x="1.5" y="0.959961" width="24" height="7" fill="#00447F"/>
<rect x="1.5" y="13.96" width="16" height="7" fill="#00447F"/>
<rect x="1.5" y="25.96" width="8" height="7" fill="#00447F"/>
</svg>
