<svg width="35" height="35" viewBox="0 0 35 35" fill="none" xmlns="http://www.w3.org/2000/svg">
<path d="M17.5 1.72021C8.67244 1.72021 1.5 8.88033 1.5 17.6927C1.5 24.247 5.41725 29.8649 11.1 32.3434C11.0448 31.2419 11.1 29.8649 11.3759 28.6532C11.7069 27.3313 13.4173 19.9509 13.4173 19.9509C13.4173 19.9509 12.9207 18.9045 12.9207 17.4173C12.9207 15.049 14.3 13.2865 16.0103 13.2865C17.4448 13.2865 18.1621 14.388 18.1621 15.7099C18.1621 17.1419 17.2241 19.345 16.7276 21.3829C16.3414 23.0903 17.5551 24.4672 19.2655 24.4672C22.3 24.4672 24.3414 20.5567 24.3414 15.9852C24.3414 12.4602 21.9689 9.87163 17.6655 9.87163C12.8103 9.87163 9.77588 13.5067 9.77588 17.5274C9.77588 18.9043 10.1621 19.8958 10.8241 20.6668C11.1 20.9973 11.1552 21.1625 11.0448 21.548C10.9896 21.8234 10.7689 22.5395 10.7138 22.8148C10.6034 23.2003 10.2724 23.3656 9.88619 23.2003C7.62413 22.264 6.631 19.8406 6.631 17.0867C6.631 12.5704 10.4379 7.11768 18.0517 7.11768C24.1758 7.11768 28.2034 11.5239 28.2034 16.2606C28.2034 22.5394 24.7276 27.221 19.5966 27.221C17.8862 27.221 16.2311 26.2847 15.6793 25.2382C15.6793 25.2382 14.7414 28.9285 14.5759 29.6445C14.2448 30.8562 13.5828 32.123 12.9759 33.0593C14.4104 33.4999 15.9552 33.7202 17.5 33.7202C26.3276 33.7202 33.5 26.5601 33.5 17.7477C33.5 8.9353 26.3276 1.72021 17.5 1.72021Z" fill="#00447F"/>
<circle cx="17.5" cy="17.7202" r="16" stroke="#00447F" stroke-width="1.7"/>
</svg>
