<svg width="35" height="34" viewBox="0 0 35 34" fill="none" xmlns="http://www.w3.org/2000/svg">
<path d="M24.3115 16.4506C24.3115 15.2034 23.864 14.3401 23.4803 13.6677C22.9686 12.8365 22.4887 12.133 22.4887 11.3015C22.4887 10.3738 23.1925 9.51049 24.1838 9.51049C24.2283 9.51049 24.2715 9.51605 24.3141 9.51834C22.5192 7.87399 20.1274 6.86963 17.501 6.86963C13.9756 6.86963 10.8748 8.678 9.07031 11.4177C9.307 11.4246 9.53026 11.4298 9.71981 11.4298C10.7752 11.4298 12.4088 11.3015 12.4088 11.3015C12.9525 11.2691 13.0167 12.0685 12.4736 12.1327C12.4736 12.1327 11.9269 12.1969 11.319 12.2286L14.9927 23.159L17.2011 16.5367L15.6288 12.2296C15.0857 12.1978 14.5707 12.1337 14.5707 12.1337C14.0273 12.1016 14.0908 11.2704 14.6345 11.3025C14.6345 11.3025 16.3008 11.4305 17.2918 11.4305C18.3472 11.4305 19.9814 11.3025 19.9814 11.3025C20.5258 11.2704 20.589 12.0692 20.0456 12.1337C20.0456 12.1337 19.4976 12.1978 18.891 12.2296L22.5375 23.0762L23.5438 19.7135C23.9799 18.317 24.3115 17.3142 24.3115 16.4506Z" fill="#00447F"/>
<path d="M7.41028 16.9597C7.41028 20.9535 9.73163 24.4049 13.0973 26.0405L8.28369 12.8535C7.72389 14.108 7.41028 15.497 7.41028 16.9597Z" fill="#00447F"/>
<path d="M17.6774 17.8423L14.6496 26.6389C15.5538 26.9048 16.5097 27.0504 17.5003 27.0504C18.6752 27.0504 19.802 26.8471 20.8509 26.4782C20.8234 26.435 20.7992 26.3895 20.7785 26.3391L17.6774 17.8423Z" fill="#00447F"/>
<path d="M22.5726 25.6811C25.5726 23.932 27.5901 20.6819 27.5901 16.9597C27.5904 15.2054 27.1423 13.5561 26.354 12.1187C26.3978 12.4398 26.4221 12.7852 26.4221 13.1561C26.4221 14.1801 26.2312 15.3311 25.6547 16.7702L22.5726 25.6811Z" fill="#00447F"/>
<path d="M17.5 0.959961C8.66342 0.959961 1.5 8.12338 1.5 16.96C1.5 25.7965 8.66342 32.96 17.5 32.96C26.3366 32.96 33.5 25.7965 33.5 16.96C33.5 8.12338 26.3366 0.959961 17.5 0.959961ZM17.5003 28.1824C11.3125 28.1824 6.2779 23.1478 6.2779 16.9596C6.2779 10.7718 11.3121 5.73754 17.5003 5.73754C23.6879 5.73754 28.7218 10.7718 28.7218 16.9596C28.7218 23.1478 23.6879 28.1824 17.5003 28.1824Z" fill="#00447F"/>
<circle cx="17.5" cy="16.96" r="16" stroke="#00447F" stroke-width="1.7"/>
</svg>
