<svg width="33" height="33" viewBox="0 0 33 33" fill="none" xmlns="http://www.w3.org/2000/svg">
<path d="M31.3112 22.5954C31.2696 23.3979 31.0388 24.1791 30.6376 24.8752C30.2363 25.5714 29.676 26.1628 29.0025 26.601L18.9471 32.3953C18.2225 32.7614 17.423 32.9546 16.6112 32.9599C15.7994 32.9651 14.9974 32.7822 14.2681 32.4255L4.13592 26.7671C3.45597 26.3384 2.88717 25.7549 2.47606 25.0641C2.06495 24.3734 1.8232 23.5951 1.7706 22.7931L1.68878 11.329C1.73059 10.5268 1.9621 9.74584 2.36431 9.0504C2.76651 8.35497 3.32794 7.76485 4.00248 7.32852L14.0566 1.52287C14.7816 1.15791 15.581 0.965311 16.3926 0.960071C17.2042 0.95483 18.0061 1.13709 18.7357 1.49266L28.8628 7.15732C30.2475 8.03472 31.1287 9.50753 31.2332 11.1264L31.3112 22.5954Z" fill="#00447F"/>
<path d="M13.6601 14.3051H26.9658V10.5941H13.6916C12.8212 10.5657 11.9545 10.7213 11.1483 11.0505C10.342 11.3798 9.61429 11.8754 9.01257 12.505C6.11729 15.5677 6.03925 23.2691 6.03925 23.2691H26.8626V16.2978H23.1201V19.5481H10.0322C10.114 18.3358 10.6755 16.1707 11.7379 15.0503C11.9861 14.7955 12.2862 14.5971 12.6179 14.4685C12.9496 14.3399 13.305 14.2842 13.6601 14.3051Z" fill="white"/>
</svg>
