<svg width="35" height="34" viewBox="0 0 35 34" fill="none" xmlns="http://www.w3.org/2000/svg">
<path fill-rule="evenodd" clip-rule="evenodd" d="M4.5 0.959961H30.5C32.706 0.959961 33.5 2.75396 33.5 4.95996V28.96C33.5 31.166 32.706 32.96 30.5 32.96H23.5V21.96H26.5L28.5 16.96H23.5V12.96C23.5 11.9452 24.257 11.951 25.2368 11.9586C25.3229 11.9593 25.4108 11.96 25.5 11.96H27.5V6.95996H23.5C20.186 6.95996 17.5 9.64596 17.5 12.96V16.96H13.5V21.96H17.5V32.96H4.5C2.294 32.96 1.5 31.166 1.5 28.96V4.95996C1.5 2.75396 2.294 0.959961 4.5 0.959961Z" fill="#00447F"/>
<path d="M17.5 32.96H2.5C1.94772 32.96 1.5 32.5122 1.5 31.96V1.95996C1.5 1.40768 1.94772 0.959961 2.5 0.959961H32.5C33.0523 0.959961 33.5 1.40768 33.5 1.95996V31.96C33.5 32.5122 33.0523 32.96 32.5 32.96H23.5" stroke="#00447F" stroke-width="1.7"/>
</svg>
