<svg width="34" height="34" viewBox="0 0 34 34" fill="none" xmlns="http://www.w3.org/2000/svg">
<path d="M32.5 7.95996L25.5 0.959961M32.5 7.95996H25.5V0.959961M32.5 7.95996V20.96M25.5 0.959961H8.5V32.96H32.5V26.96" stroke="#00447F" stroke-width="1.7" stroke-linecap="round" stroke-linejoin="round"/>
<path d="M0.5 16.96C0.5 16.4077 0.947715 15.96 1.5 15.96H25.5C26.0523 15.96 26.5 16.4077 26.5 16.96V25.96C26.5 26.5122 26.0523 26.96 25.5 26.96H1.5C0.947716 26.96 0.5 26.5122 0.5 25.96V16.96Z" fill="#00447F"/>
<path d="M15.0779 22.8587C15.353 23.3507 15.7109 23.7124 16.3438 23.7124C16.8756 23.7124 17.2152 23.4212 17.2152 23.019C17.2152 22.5369 16.8662 22.3662 16.281 22.0858L15.9601 21.935C15.0341 21.5028 14.4189 20.9614 14.4189 19.8169C14.4189 18.7626 15.1523 17.96 16.2983 17.96C17.1142 17.96 17.7008 18.271 18.1235 19.0855L17.1242 19.7884C16.9042 19.3562 16.6668 19.186 16.2983 19.186C15.9224 19.186 15.6842 19.4472 15.6842 19.7884C15.6842 20.2101 15.9226 20.3808 16.4732 20.6421L16.794 20.7926C17.8844 21.3048 18.5 21.8269 18.5 23.0009C18.5 24.2666 17.5924 24.96 16.3735 24.96C15.1817 24.96 14.4117 24.3378 14.035 23.5224L15.0779 22.8587ZM10.5446 22.9805C10.7462 23.3724 10.9296 23.7036 11.3705 23.7036C11.7921 23.7036 12.0581 23.5229 12.0581 22.8203V18.0403H13.3414V22.8392C13.3414 24.2948 12.5623 24.9574 11.4251 24.9574C10.3976 24.9574 9.80263 24.3749 9.5 23.6733L10.5446 22.9805Z" fill="white"/>
</svg>
