<svg width="34" height="34" viewBox="0 0 34 34" fill="none" xmlns="http://www.w3.org/2000/svg">
<path d="M32.5 7.95996V32.96H8.5V12.96M32.5 7.95996L25.5 0.959961M32.5 7.95996H25.5V0.959961M25.5 0.959961H8.5V6.95996" stroke="#00447F" stroke-width="1.7" stroke-linecap="round" stroke-linejoin="round"/>
<rect x="0.5" y="15.96" width="26" height="11" rx="1" fill="#00447F"/>
<path d="M7.55521 18.1602C7.22005 18.1602 6.94828 18.4316 6.94828 18.7671V21.1946H3.91386V18.7671C3.91386 18.4317 3.64209 18.1602 3.30694 18.1602C2.97178 18.1602 2.70001 18.4316 2.70001 18.7671V23.6223C2.70001 23.9577 2.97178 24.2292 3.30694 24.2292C3.64209 24.2292 3.91386 23.9578 3.91386 23.6223V22.4085H6.94835V23.6223C6.94835 23.9577 7.22012 24.2292 7.55527 24.2292C7.89043 24.2292 8.1622 23.9578 8.1622 23.6223V18.7671C8.16213 18.4316 7.89036 18.1602 7.55521 18.1602Z" fill="white"/>
<path d="M19.2484 18.1821C18.9844 18.1098 18.7062 18.2201 18.5659 18.4548L16.9621 21.1277L15.3583 18.4548C15.2181 18.2213 14.9398 18.1104 14.6758 18.1821C14.413 18.255 14.231 18.4944 14.231 18.7671V23.6223C14.231 23.9577 14.5028 24.2292 14.8379 24.2292C15.1731 24.2292 15.4449 23.9578 15.4449 23.6223V20.9582L16.1384 22.1139C16.2479 22.2965 16.4457 22.4085 16.6587 22.4085H17.2656C17.4788 22.4085 17.6764 22.2965 17.786 22.1139L18.4794 20.9582V23.6223C18.4794 23.9577 18.7511 24.2292 19.0863 24.2292C19.4214 24.2292 19.6932 23.9578 19.6932 23.6223V18.7671C19.6931 18.4944 19.5112 18.2551 19.2484 18.1821Z" fill="white"/>
<path d="M13.0173 18.1602H9.37591C9.04075 18.1602 8.76898 18.4316 8.76898 18.7671C8.76898 19.1025 9.04075 19.374 9.37591 19.374H10.5897V23.6223C10.5897 23.9577 10.8615 24.2292 11.1966 24.2292C11.5318 24.2292 11.8035 23.9578 11.8035 23.6223V19.374H13.0173C13.3525 19.374 13.6242 19.1026 13.6242 18.7671C13.6242 18.4316 13.3525 18.1602 13.0173 18.1602Z" fill="white"/>
<path d="M24.5483 23.0154H22.1208V18.7671C22.1208 18.4317 21.849 18.1602 21.5138 18.1602C21.1787 18.1602 20.9069 18.4316 20.9069 18.7671V23.6223C20.9069 23.9577 21.1787 24.2292 21.5138 24.2292H24.5483C24.8835 24.2292 25.1553 23.9578 25.1553 23.6223C25.1553 23.2868 24.8835 23.0154 24.5483 23.0154Z" fill="white"/>
</svg>
