<svg width="35" height="34" viewBox="0 0 35 34" fill="none" xmlns="http://www.w3.org/2000/svg">
<path d="M8.62 1.8401L2.38 8.08109C1.815 8.64616 1.5 9.40629 1.5 10.2014V31.4597C1.5 32.29 2.17 32.96 3 32.96H32C32.83 32.96 33.5 32.29 33.5 31.4597V2.4602C33.5 1.63007 32.83 0.959961 32 0.959961H10.745C9.95 0.959961 9.185 1.27501 8.625 1.8401H8.62Z" fill="#00447F" stroke="#00447F" stroke-width="1.7"/>
<path d="M24.0954 22.1489H21.8243V12.6357H27.8784V14.851H24.0954V16.5486H27.6608V18.7087H24.0954V22.1493V22.1489Z" fill="white"/>
<path opacity="0.05" d="M21.2673 18.1382H23.554C23.2157 20.5526 21.2291 22.1493 18.8223 22.1493C16.1866 22.1493 14.0407 20.1308 14.0407 17.4126C14.0352 16.7805 14.1551 16.1538 14.3932 15.5707C14.6313 14.9875 14.9826 14.4601 15.4258 14.0203C16.3353 13.1176 17.5562 12.6201 18.8223 12.6361C21.2069 12.6361 23.2489 14.2452 23.5393 16.6209H21.2548C20.568 13.9298 16.2878 14.1929 16.2878 17.4126C16.2878 20.6327 20.6216 20.8699 21.2673 18.139V18.1382Z" fill="#002447"/>
<path d="M20.903 18.1382C20.5106 19.4965 19.1143 20.3041 17.7399 19.9659C16.3647 19.6265 15.5031 18.2644 15.7885 16.8797C16.0736 15.4948 17.4035 14.5823 18.8006 14.8133C19.3729 14.8927 19.9006 15.1731 20.2939 15.6066C20.5657 15.8934 20.7697 16.2402 20.8901 16.6205H23.1077C22.8173 14.2394 20.7697 12.6361 18.3909 12.6361C17.1247 12.6197 15.9035 13.117 14.9937 14.0196C14.5503 14.4594 14.1988 14.9871 13.9607 15.5705C13.7225 16.154 13.6026 16.781 13.6084 17.4134C13.6084 20.1315 15.7417 22.1493 18.3916 22.1493C20.7965 22.1493 22.7773 20.5526 23.1217 18.1382H20.9026H20.903Z" fill="white"/>
<path opacity="0.05" d="M13.8831 20.7654H10.6016L10.0652 22.1462H7.55408L11.397 12.6357H13.0718L17.0676 22.1493H14.4164L13.8823 20.7654H13.8831ZM11.5344 18.4112L11.4522 18.626H13.0452L12.99 18.4647L12.2483 16.4253L11.5344 18.4112Z" fill="#002447"/>
<path d="M13.1575 20.7654H10.0305L9.51884 22.1462H7.12158L10.79 12.6357H12.3887L16.2027 22.1493H13.6732L13.1575 20.7654ZM10.9208 18.4112L10.8427 18.626H12.3633L12.3102 18.4647L11.6026 16.4253L10.9212 18.4112H10.9208Z" fill="white"/>
</svg>
