<svg width="35" height="34" viewBox="0 0 35 34" fill="none" xmlns="http://www.w3.org/2000/svg">
<path d="M21.5 10.96L29.5 10.96" stroke="#00447F" stroke-width="1.7" stroke-linecap="round"/>
<path d="M21.5 14.96L29.5 14.96" stroke="#00447F" stroke-width="1.7" stroke-linecap="round"/>
<path d="M21.5 18.96L29.5 18.96" stroke="#00447F" stroke-width="1.7" stroke-linecap="round"/>
<path d="M21.5 22.96L29.5 22.96" stroke="#00447F" stroke-width="1.7" stroke-linecap="round"/>
<path d="M17.5 0.959961V31.6266" stroke="#00447F" stroke-width="1.7" stroke-linecap="square"/>
<path d="M17.5 30.96V20.8067L14.5575 23.8633L9.83716 18.96L1.5 27.6204V30.96" stroke="#00447F" stroke-width="1.7" stroke-linecap="round" stroke-linejoin="round"/>
<circle cx="7" cy="10.46" r="2.5" stroke="#00447F" stroke-width="1.7"/>
<path d="M33.5 20.96V1.95996C33.5 1.40768 33.0523 0.959961 32.5 0.959961H2.5C1.94772 0.959961 1.5 1.40768 1.5 1.95996V31.96C1.5 32.5122 1.94772 32.96 2.5 32.96H26.8333H32.5C33.0523 32.96 33.5 32.5122 33.5 31.96V26.96" stroke="#00447F" stroke-width="1.7" stroke-linecap="round"/>
</svg>
