<svg width="33" height="33" viewBox="0 0 33 33" fill="none" xmlns="http://www.w3.org/2000/svg">
<path d="M3.46985 7.35059H29.5171C31.1656 7.35059 32.5 8.69689 32.5 10.3601V20.3916C32.5 22.0549 31.1656 23.4012 29.5171 23.4012H20.1762L21.4584 26.569L15.8197 23.4012H3.48285C1.83447 23.4012 0.500096 22.0549 0.500096 20.3916V10.3601C0.486971 8.71013 1.82122 7.35059 3.46985 7.35059Z" fill="#00447F"/>
<path d="M2.32226 10.0935C2.50439 9.84399 2.77751 9.71283 3.14177 9.6866C3.80527 9.63401 4.18252 9.94892 4.27352 10.6315C4.67677 13.3745 5.11902 15.6976 5.58727 17.6006L8.43602 12.1277C8.69627 11.6289 9.02152 11.3665 9.41177 11.3402C9.98415 11.3009 10.3353 11.6683 10.4784 12.4426C10.8036 14.1881 11.2199 15.6712 11.7141 16.9312C12.0524 13.5976 12.6248 11.1958 13.4313 9.71283C13.6263 9.34532 13.9125 9.16157 14.2898 9.13521C14.589 9.10911 14.8622 9.20092 15.1093 9.39779C15.3564 9.59466 15.4865 9.84399 15.5125 10.1459C15.5255 10.3821 15.4865 10.579 15.3825 10.7759C14.8751 11.7209 14.4588 13.3089 14.1206 15.5137C13.7955 17.6531 13.6784 19.3199 13.7564 20.5143C13.7825 20.8422 13.7304 21.131 13.6004 21.3804C13.4441 21.6691 13.2101 21.8267 12.9109 21.8529C12.5726 21.8791 12.2215 21.7217 11.8833 21.3673C10.6735 20.1204 9.7109 18.2568 9.00852 15.7763C8.16289 17.4562 7.53852 18.7161 7.13527 19.556C6.36777 21.0392 5.71739 21.8004 5.17102 21.8398C4.81977 21.866 4.52064 21.5641 4.26052 20.9342C3.59714 19.2149 2.88164 15.8943 2.11426 10.9727C2.06214 10.6315 2.14014 10.3295 2.32226 10.0935ZM30.2768 12.154C29.8085 11.3271 29.119 10.8285 28.1955 10.6315C27.9483 10.579 27.7143 10.5528 27.493 10.5528C26.2443 10.5528 25.2297 11.209 24.4362 12.5215C23.7597 13.637 23.4215 14.8706 23.4215 16.2225C23.4215 17.2331 23.6297 18.0993 24.0459 18.8211C24.5142 19.648 25.2037 20.1466 26.1272 20.3435C26.3743 20.3961 26.6084 20.4223 26.8297 20.4223C28.0914 20.4223 29.106 19.7661 29.8865 18.4536C30.5629 17.3249 30.9012 16.0912 30.9012 14.7395C30.9142 13.7158 30.693 12.8626 30.2768 12.154ZM28.6378 15.7894C28.4557 16.6556 28.1304 17.2987 27.649 17.7317C27.2719 18.073 26.9207 18.2173 26.5955 18.1517C26.2833 18.0861 26.023 17.8106 25.828 17.2987C25.6718 16.8918 25.5939 16.485 25.5939 16.1043C25.5939 15.7763 25.6199 15.4481 25.6849 15.1463C25.802 14.6082 26.0232 14.0832 26.3743 13.5845C26.8037 12.9413 27.2589 12.679 27.7272 12.7708C28.0394 12.8364 28.2997 13.1121 28.4947 13.6239C28.6508 14.0307 28.7288 14.4376 28.7288 14.8182C28.7288 15.1595 28.7028 15.4876 28.6378 15.7894ZM22.1337 12.154C21.6654 11.3271 20.9629 10.8285 20.0524 10.6315C19.8053 10.579 19.5712 10.5528 19.3499 10.5528C18.1012 10.5528 17.0865 11.209 16.293 12.5215C15.6167 13.637 15.2784 14.8706 15.2784 16.2225C15.2784 17.2331 15.4865 18.0993 15.9028 18.8211C16.371 19.648 17.0605 20.1466 17.984 20.3435C18.2313 20.3961 18.4653 20.4223 18.6865 20.4223C19.9483 20.4223 20.9629 19.7661 21.7434 18.4536C22.4199 17.3249 22.758 16.0912 22.758 14.7395C22.758 13.7158 22.5499 12.8626 22.1337 12.154ZM20.4817 15.7894C20.2995 16.6556 19.9743 17.2987 19.493 17.7317C19.1158 18.073 18.7645 18.2173 18.4393 18.1517C18.1272 18.0861 17.867 17.8106 17.6718 17.2987C17.5158 16.8918 17.4378 16.485 17.4378 16.1043C17.4378 15.7763 17.4638 15.4481 17.5288 15.1463C17.6459 14.6082 17.867 14.0832 18.2183 13.5845C18.6475 12.9413 19.1028 12.679 19.571 12.7708C19.8833 12.8364 20.1435 13.1121 20.3385 13.6239C20.4948 14.0307 20.5727 14.4376 20.5727 14.8182C20.5858 15.1595 20.5467 15.4876 20.4817 15.7894Z" fill="white"/>
</svg>
