<svg width="35" height="34" viewBox="0 0 35 34" fill="none" xmlns="http://www.w3.org/2000/svg">
<rect x="1.5" y="0.959961" width="32" height="32" rx="3" fill="#00447F" stroke="#00447F" stroke-width="1.7"/>
<path fill-rule="evenodd" clip-rule="evenodd" d="M17.8091 6.81006C23.327 6.97348 27.75 11.498 27.75 17.0555C27.75 21.2972 25.1734 24.9372 21.5 26.4957C20.946 26.7307 20.8849 25.8331 20.8183 24.8531C20.7533 23.8967 20.6829 22.862 20.1438 22.725C22.2741 21.7291 23.75 19.5669 23.75 17.0601C23.75 13.712 21.1175 10.9789 17.8095 10.8176L17.8091 10.8154V6.81006ZM14.9148 11.3681L14.5 9.20996C14.0968 9.2219 15.5 7.20996 16 6.91446C11.0501 7.6403 7.25 11.9041 7.25 17.0555C7.25 22.613 11.673 27.1375 17.1909 27.3009V23.3025C13.8827 23.1414 11.25 20.4082 11.25 17.0601C11.25 14.5303 12.753 12.3515 14.9148 11.3681Z" fill="white"/>
<path d="M6.5 6.70996L16 16.21V6.70996H6.5Z" fill="white"/>
<path d="M28.5 27.21L19 17.71L19 27.21L28.5 27.21Z" fill="white"/>
</svg>
