<svg width="35" height="34" viewBox="0 0 35 34" fill="none" xmlns="http://www.w3.org/2000/svg">
<path d="M18.4381 10.1601C20.3993 10.17 22.2574 11.0504 23.5217 12.5681C23.823 12.925 24.3528 12.9676 24.7055 12.6628C25.0581 12.358 25.1001 11.8213 24.799 11.4641C21.8011 7.88316 16.5039 7.44063 12.9672 10.4758C9.43027 13.511 8.99321 18.8748 11.9911 22.4558C14.9888 26.0368 20.286 26.4793 23.823 23.4441C24.1745 23.1424 24.5008 22.8119 24.799 22.4558C25.1001 22.0986 25.0581 21.5622 24.7055 21.2571C24.3528 20.9523 23.823 20.9949 23.5217 21.3518C21.1186 24.2023 16.8882 24.5406 14.0729 22.1072C11.2579 19.674 10.9238 15.3906 13.3269 12.5401C14.6035 11.0263 16.4721 10.156 18.4381 10.1601Z" fill="#00447F"/>
<path d="M21.4842 32.46C20.2104 32.7864 18.8755 32.96 17.5 32.96C8.66344 32.96 1.5 25.7965 1.5 16.96C1.5 8.1234 8.66344 0.959961 17.5 0.959961C26.3366 0.959961 33.5 8.1234 33.5 16.96C33.5 22.0127 31.1579 26.5185 27.5 29.4507" stroke="#00447F" stroke-width="1.7" stroke-linecap="round"/>
</svg>
