<svg width="35" height="34" viewBox="0 0 35 34" fill="none" xmlns="http://www.w3.org/2000/svg">
<path d="M21.5 0.959965L2.5 0.959961C1.94772 0.959961 1.5 1.40768 1.5 1.95996L1.49999 31.96C1.49999 32.5122 1.94771 32.96 2.49999 32.96L32.5 32.96C33.0523 32.96 33.5 32.5122 33.5 31.96L33.5 1.95997C33.5 1.40768 33.0523 0.959966 32.5 0.959966L27.5 0.959966" stroke="#00447F" stroke-width="1.7" stroke-linecap="round"/>
<path d="M17.5 20.8171C18.5629 20.8171 19.4714 20.44 20.2257 19.6857C20.98 18.9314 21.3571 18.0228 21.3571 16.96C21.3571 15.8971 20.98 14.9885 20.2257 14.2342C19.4714 13.48 18.5629 13.1028 17.5 13.1028C16.4371 13.1028 15.5286 13.48 14.7743 14.2342C14.02 14.9885 13.6429 15.8971 13.6429 16.96C13.6429 18.0228 14.02 18.9314 14.7743 19.6857C15.5286 20.44 16.4371 20.8171 17.5 20.8171ZM21.8329 24.88C20.5386 25.6 19.0943 25.96 17.5 25.96C15.0143 25.96 12.8929 25.0814 11.1357 23.3242C9.37857 21.5671 8.5 19.4457 8.5 16.96C8.5 14.4742 9.35715 12.3528 11.0714 10.5957C12.7857 8.83853 14.9286 7.95996 17.5 7.95996C20.0714 7.95996 22.2143 8.8171 23.9286 10.5314C25.6429 12.2457 26.5 14.3885 26.5 16.96V23.3885C26.5 24.1 26.2493 24.7064 25.7479 25.2078C25.2464 25.7092 24.64 25.96 23.9286 25.96C23.2171 25.96 22.6129 25.7071 22.1157 25.2014C22.0043 25.0985 21.91 24.9914 21.8329 24.88Z" stroke="#00447F" stroke-width="1.7"/>
</svg>
