<svg width="35" height="34" viewBox="0 0 35 34" fill="none" xmlns="http://www.w3.org/2000/svg">
<rect x="6.5" y="0.959961" width="22" height="32" rx="1" stroke="#00447F" stroke-width="1.7"/>
<path d="M20.4999 10.8137C20.5052 10.0225 20.2191 9.39684 19.6483 8.95499C19.2075 8.61479 18.6725 8.43733 18.155 8.2668C17.0771 7.90967 16.7644 7.72156 16.7644 7.1582C16.7644 6.53069 17.5106 6.30742 18.1494 6.30742C18.6146 6.30742 19.1499 6.4655 19.4823 6.69977L20.1412 5.58439C19.7068 5.27661 19.1123 5.06667 18.5252 5.00151V3.95996H17.3095V5.07455C16.2289 5.33434 15.5482 6.10618 15.5482 7.1582C15.5482 7.89498 15.8284 8.47927 16.3793 8.89139C16.7983 9.20602 17.3093 9.37496 17.803 9.53852C18.8602 9.88778 19.2896 10.1006 19.2847 10.8054L19.2847 10.8106C19.2847 11.4022 18.5673 11.6125 17.9528 11.6125C17.3723 11.6125 16.741 11.3345 16.3831 10.921L15.5 11.834C15.9532 12.3578 16.6116 12.7282 17.3095 12.8733V13.96H18.5252V12.8967C19.7259 12.7089 20.4987 11.9188 20.4999 10.8137Z" fill="#00447F"/>
<path d="M10.5 18.96H24.5M10.5 23.46H24.5M10.5 27.96H24.5" stroke="#00447F" stroke-width="1.7" stroke-linecap="round" stroke-linejoin="round"/>
<path d="M33.5 5.95996H28.5V27.96H33.5V5.95996Z" stroke="#00447F" stroke-width="1.7" stroke-linecap="round" stroke-linejoin="round"/>
<path d="M6.5 5.95996H1.5V27.96H6.5V5.95996Z" stroke="#00447F" stroke-width="1.7" stroke-linecap="round" stroke-linejoin="round"/>
</svg>
