<svg width="35" height="34" viewBox="0 0 35 34" fill="none" xmlns="http://www.w3.org/2000/svg">
<path d="M8.59188 20.2978L6 22.4598L3.40681 24.5422C2.19013 22.2855 1.5 19.7036 1.5 16.9598C1.5 14.3066 2.14525 11.8046 3.289 9.60156L5.5 11.4598L8.50212 13.8688C8.16981 14.8376 7.98869 15.8776 7.98869 16.9598C7.98881 18.1343 8.20156 19.2596 8.59188 20.2978Z" stroke="#00447F" stroke-width="1.7" stroke-linejoin="round"/>
<path d="M33.2205 13.9712C33.4042 14.9391 33.5001 15.9386 33.5001 16.9602C33.5001 18.1057 33.3796 19.2231 33.1502 20.3009C32.3713 23.9686 30.3361 27.1712 27.5168 29.4376L27.5159 29.4367L25.0001 27.4602L22.3046 25.1703C24.1753 24.0732 25.6373 22.3563 26.4074 20.3009H17.8518V13.9712H26.5322H33.2205Z" stroke="#00447F" stroke-width="1.7" stroke-linejoin="round"/>
<path d="M27.5159 29.4363L27.5167 29.4372C24.7748 31.6411 21.2917 32.9598 17.5 32.9598C11.4069 32.9598 6.1093 29.5541 3.40686 24.5422L8.59192 20.2979C9.94311 23.904 13.4218 26.471 17.5 26.471C19.253 26.471 20.8952 25.9972 22.3044 25.1699L27.5159 29.4363Z" stroke="#00447F" stroke-width="1.7" stroke-linejoin="round"/>
<path d="M27.7127 4.64346L22.5294 8.88696C21.0709 7.97534 19.3469 7.44871 17.4999 7.44871C13.3294 7.44871 9.78563 10.1335 8.50213 13.869L3.28982 9.60171H3.28894C5.95182 4.46765 11.3162 0.959961 17.4999 0.959961C21.3821 0.959961 24.9417 2.34284 27.7127 4.64346Z" stroke="#00447F" stroke-width="1.7" stroke-linejoin="round"/>
</svg>
