<svg width="30" height="32" viewBox="0 0 30 32" fill="none" xmlns="http://www.w3.org/2000/svg">
<g clip-path="url(#clip0_207_361)">
<path d="M2.76351 6.99228L13.2635 0.992277C14.3395 0.377411 15.6605 0.377411 16.7365 0.992277L27.2365 6.99228C28.327 7.61543 29 8.77513 29 10.0311V21.9689C29 23.2249 28.327 24.3846 27.2365 25.0077L16.7365 31.0077C15.6605 31.6226 14.3395 31.6226 13.2635 31.0077L2.76351 25.0077C1.673 24.3846 1 23.2249 1 21.9689V10.0311C1 8.77513 1.673 7.61543 2.76351 6.99228Z" fill="#00447F" stroke="#00447F"/>
<mask id="mask0_207_361" style="mask-type:luminance" maskUnits="userSpaceOnUse" x="3" y="13" width="24" height="14">
<path d="M25.9165 19.8934L15.6974 13.9934C15.2909 13.7587 14.6317 13.7587 14.2252 13.9934L4.00609 19.8934C3.59954 20.1281 3.59954 20.5087 4.00609 20.7434L14.2252 26.6434C14.6317 26.8781 15.2909 26.8781 15.6974 26.6434L25.9165 20.7434C26.3231 20.5087 26.3231 20.1281 25.9165 19.8934Z" fill="white"/>
</mask>
<g mask="url(#mask0_207_361)">
<path d="M25.9165 19.8934L15.6974 13.9934C15.2909 13.7587 14.6317 13.7587 14.2252 13.9934L4.00609 19.8934C3.59954 20.1281 3.59954 20.5087 4.00609 20.7434L14.2252 26.6434C14.6317 26.8781 15.2909 26.8781 15.6974 26.6434L25.9165 20.7434C26.3231 20.5087 26.3231 20.1281 25.9165 19.8934Z" fill="white" stroke="white" stroke-width="3.4"/>
</g>
<mask id="mask1_207_361" style="mask-type:luminance" maskUnits="userSpaceOnUse" x="3" y="10" width="24" height="14">
<path d="M25.9165 16.7635L15.6974 10.8635C15.2909 10.6288 14.6317 10.6288 14.2252 10.8635L4.00609 16.7635C3.59954 16.9982 3.59954 17.3788 4.00609 17.6135L14.2252 23.5135C14.6317 23.7482 15.2909 23.7482 15.6974 23.5135L25.9165 17.6135C26.3231 17.3788 26.3231 16.9982 25.9165 16.7635Z" fill="white"/>
</mask>
<g mask="url(#mask1_207_361)">
<path d="M25.9165 16.7635L15.6974 10.8635C15.2909 10.6288 14.6317 10.6288 14.2252 10.8635L4.00609 16.7635C3.59954 16.9982 3.59954 17.3788 4.00609 17.6135L14.2252 23.5135C14.6317 23.7482 15.2909 23.7482 15.6974 23.5135L25.9165 17.6135C26.3231 17.3788 26.3231 16.9982 25.9165 16.7635Z" fill="#00447F" stroke="#00447F" stroke-width="3.4"/>
</g>
<mask id="mask2_207_361" style="mask-type:luminance" maskUnits="userSpaceOnUse" x="3" y="9" width="24" height="14">
<path d="M25.9165 15.7635L15.6974 9.86348C15.2909 9.62876 14.6317 9.62876 14.2252 9.86348L4.00609 15.7635C3.59954 15.9982 3.59954 16.3788 4.00609 16.6135L14.2252 22.5135C14.6317 22.7482 15.2909 22.7482 15.6974 22.5135L25.9165 16.6135C26.3231 16.3788 26.3231 15.9982 25.9165 15.7635Z" fill="white"/>
</mask>
<g mask="url(#mask2_207_361)">
<path d="M25.9165 15.7635L15.6974 9.86348C15.2909 9.62876 14.6317 9.62876 14.2252 9.86348L4.00609 15.7635C3.59954 15.9982 3.59954 16.3788 4.00609 16.6135L14.2252 22.5135C14.6317 22.7482 15.2909 22.7482 15.6974 22.5135L25.9165 16.6135C26.3231 16.3788 26.3231 15.9982 25.9165 15.7635Z" fill="white" stroke="white" stroke-width="3.4"/>
</g>
<mask id="mask3_207_361" style="mask-type:luminance" maskUnits="userSpaceOnUse" x="3" y="6" width="24" height="14">
<path d="M25.9165 12.325L15.6974 6.425C15.2909 6.19028 14.6317 6.19028 14.2252 6.425L4.00609 12.325C3.59954 12.5597 3.59954 12.9403 4.00609 13.175L14.2252 19.075C14.6317 19.3097 15.2909 19.3097 15.6974 19.075L25.9165 13.175C26.3231 12.9403 26.3231 12.5597 25.9165 12.325Z" fill="white"/>
</mask>
<g mask="url(#mask3_207_361)">
<path d="M25.9165 12.325L15.6974 6.425C15.2909 6.19028 14.6317 6.19028 14.2252 6.425L4.00609 12.325C3.59954 12.5597 3.59954 12.9403 4.00609 13.175L14.2252 19.075C14.6317 19.3097 15.2909 19.3097 15.6974 19.075L25.9165 13.175C26.3231 12.9403 26.3231 12.5597 25.9165 12.325Z" fill="#00447F" stroke="#00447F" stroke-width="3.4"/>
</g>
<mask id="mask4_207_361" style="mask-type:luminance" maskUnits="userSpaceOnUse" x="3" y="5" width="24" height="14">
<path d="M25.9165 11.325L15.6974 5.425C15.2909 5.19028 14.6317 5.19028 14.2252 5.425L4.00609 11.325C3.59954 11.5597 3.59954 11.9403 4.00609 12.175L14.2252 18.075C14.6317 18.3097 15.2909 18.3097 15.6974 18.075L25.9165 12.175C26.3231 11.9403 26.3231 11.5597 25.9165 11.325Z" fill="white"/>
</mask>
<g mask="url(#mask4_207_361)">
<path d="M25.9165 11.325L15.6974 5.425C15.2909 5.19028 14.6317 5.19028 14.2252 5.425L4.00609 11.325C3.59954 11.5597 3.59954 11.9403 4.00609 12.175L14.2252 18.075C14.6317 18.3097 15.2909 18.3097 15.6974 18.075L25.9165 12.175C26.3231 11.9403 26.3231 11.5597 25.9165 11.325Z" fill="white" stroke="white" stroke-width="3.4"/>
</g>
</g>
<defs>
<clipPath id="clip0_207_361">
<rect width="30" height="32" fill="white"/>
</clipPath>
</defs>
</svg>
