<svg width="35" height="34" viewBox="0 0 35 34" fill="none" xmlns="http://www.w3.org/2000/svg">
<path d="M23.1897 22.7512C23.1417 21.4089 22.3987 20.1865 21.2241 19.5393C17.9882 17.7655 13.7695 17.7416 10.4138 19.4913C9.14338 20.1625 8.40031 21.337 8.37634 22.7512H23.1897Z" fill="white"/>
<path d="M8.42431 22.7513C8.47225 21.3371 9.19134 20.1865 10.4617 19.5154C13.7696 17.7656 17.9643 17.7895 21.1762 19.5393C22.3507 20.1865 23.0938 21.409 23.1417 22.7273H26.0661C26.0661 22.7273 26.0661 22.5356 26.0661 22.4157C26.0661 20.9056 25.7305 19.4435 25.1073 18.0772C25.0114 17.8135 24.8676 17.5498 24.7237 17.3101C25.9462 16.9027 27.1447 16.663 28.0555 16.4952C29.1342 16.2794 29.7574 16.1356 29.3979 15.824C28.6068 15.1768 27.6001 14.4817 27.6001 14.4817C27.6001 14.4817 31.651 11.1259 27.6001 12.1566C26.881 12.3244 26.2099 12.6121 25.5867 12.9716C24.4601 13.6188 23.6451 14.4577 23.0698 15.1768C21.1523 13.2353 18.5396 12.1566 15.807 12.1566C10.1022 12.2046 5.5 16.7828 5.5 22.4636C5.5 22.5595 5.5 22.7753 5.5 22.7753H8.42431V22.7513Z" fill="#00447F"/>
<path d="M12.9307 22.7512C12.9067 21.9362 12.4513 21.2891 11.9 21.2891C11.3487 21.2891 10.8693 21.9362 10.8693 22.7512H12.9307Z" fill="#00447F"/>
<path d="M20.6968 22.7512C20.6968 21.9362 20.2174 21.2891 19.6661 21.2891C19.0909 21.2891 18.6354 21.9362 18.6354 22.7512H20.6968Z" fill="#00447F"/>
<path d="M1.5 12.96L1.5 31.96C1.5 32.5122 1.94772 32.96 2.5 32.96L32.5 32.96C33.0523 32.96 33.5 32.5122 33.5 31.96L33.5 1.95996C33.5 1.40767 33.0523 0.95996 32.5 0.95996L2.5 0.959961C1.94771 0.959961 1.5 1.40768 1.5 1.95996L1.5 6.95996" stroke="#00447F" stroke-width="1.7" stroke-linecap="round"/>
</svg>
