<svg width="35" height="34" viewBox="0 0 35 34" fill="none" xmlns="http://www.w3.org/2000/svg">
<path d="M3.5 16.96L2.5 16.96C1.94771 16.96 1.5 16.5122 1.5 15.96L1.5 1.95996C1.5 1.40768 1.94772 0.959961 2.5 0.959961L32.5 0.959962C33.0523 0.959962 33.5 1.40768 33.5 1.95996L33.5 6.95996M3.5 16.96L8.5 16.96C9.05228 16.96 9.5 17.4077 9.5 17.96L9.5 30.46M3.5 16.96L3.5 29.46C3.5 30.0122 3.94771 30.46 4.5 30.46L9.5 30.46M9.5 30.46L9.5 31.96C9.5 32.5122 9.94771 32.96 10.5 32.96L32.5 32.96C33.0523 32.96 33.5 32.5122 33.5 31.96L33.5 12.96" stroke="#00447F" stroke-width="1.7" stroke-linecap="round"/>
<path d="M8.5 16.96L4.5 16.96C3.94772 16.96 3.5 17.4077 3.5 17.96L3.5 29.46C3.5 30.0122 3.94771 30.46 4.5 30.46L8.5 30.46C9.05228 30.46 9.5 30.0122 9.5 29.46L9.5 17.96C9.5 17.4077 9.05228 16.96 8.5 16.96Z" fill="#00447F"/>
</svg>
