<svg width="35" height="34" viewBox="0 0 35 34" fill="none" xmlns="http://www.w3.org/2000/svg">
<rect x="1.5" y="0.959961" width="32" height="32" rx="1" stroke="#00447F" stroke-width="1.7"/>
<path d="M25.7712 26.7138H22.8159L9.21234 7.25538H12.1677L25.7712 26.7138Z" fill="#00447F"/>
<path d="M31.0423 0.959961H3.95767C2.0481 0.959961 1.5 2.50806 1.5 4.41763V29.5023C1.5 31.4119 2.0481 32.96 3.95767 32.96H31.0423C32.9519 32.96 33.5 31.4119 33.5 29.5023V4.41763C33.5 2.50806 32.9519 0.959961 31.0423 0.959961ZM21.9106 28.0966L15.9642 19.4422L8.51914 28.0966H6.59496L15.1098 18.1993L6.59496 5.8069H13.0894L18.7203 14.002L25.7702 5.8069H27.6944L19.5749 15.2452L28.405 28.0966H21.9106Z" fill="#00447F"/>
</svg>
