<?xml version="1.0" encoding="utf-8"?>
<!-- Generator: Adobe Illustrator 22.1.0, SVG Export Plug-In . SVG Version: 6.00 Build 0)  -->
<svg version="1.1" id="Layer_1" xmlns="http://www.w3.org/2000/svg" xmlns:xlink="http://www.w3.org/1999/xlink" x="0px" y="0px"
	 viewBox="0 0 782.6 201" style="enable-background:new 0 0 782.6 201;" xml:space="preserve">
<style type="text/css">
	.st0{fill:url(#SVGID_1_);}
	.st1{fill:url(#SVGID_2_);}
	.st2{fill:url(#SVGID_3_);}
	.st3{fill:url(#SVGID_4_);}
	.st4{fill:#163749;}
</style>
<title>Dashy with slogan</title>
<g>
	
		<linearGradient id="SVGID_1_" gradientUnits="userSpaceOnUse" x1="162.2827" y1="904.1638" x2="-18.9427" y2="1015.8531" gradientTransform="matrix(1 0 0 1 0 -876)">
		<stop  offset="0" style="stop-color:#003751"/>
		<stop  offset="0.35" style="stop-color:#005E6C"/>
		<stop  offset="1" style="stop-color:#00B1A5"/>
	</linearGradient>
	<path class="st0" d="M194.3,12.3L18.8,171.7l-0.9-57.4c-0.4-21.7,8.7-42.7,25-57.5l31-28c12.8-11.4,29.4-17.6,46.4-17.2L194.3,12.3
		z"/>
	
		<linearGradient id="SVGID_2_" gradientUnits="userSpaceOnUse" x1="216.4812" y1="864.1467" x2="35.256" y2="975.8273" gradientTransform="matrix(1 0 0 1 0 -876)">
		<stop  offset="0" style="stop-color:#00B1A5"/>
		<stop  offset="0" style="stop-color:#00576D"/>
		<stop  offset="1" style="stop-color:#11344C"/>
	</linearGradient>
	<path class="st1" d="M196,11.6l-127.5,115l0.3-69.2c0-19.2,11.9-36.4,30-43l0,0c3.8-1.4,7.8-2.3,11.9-2.6c1.3-0.1,2.6-0.1,3.8-0.1
		H196V11.6z"/>
	
		<linearGradient id="SVGID_3_" gradientUnits="userSpaceOnUse" x1="36.8125" y1="1063.6997" x2="239.11" y2="935.1596" gradientTransform="matrix(1 0 0 1 0 -876)">
		<stop  offset="0" style="stop-color:#003751"/>
		<stop  offset="0.35" style="stop-color:#005E6C"/>
		<stop  offset="1" style="stop-color:#00B1A5"/>
	</linearGradient>
	<path class="st2" d="M32.4,183.7L207.9,24.4l0.9,57.4c0.3,21.9-8.8,42.9-25,57.7l-30.8,28c-12.8,11.4-29.4,17.6-46.4,17.2
		L32.4,183.7z"/>
	
		<linearGradient id="SVGID_4_" gradientUnits="userSpaceOnUse" x1="39.4687" y1="1067.8871" x2="241.8177" y2="939.4759" gradientTransform="matrix(1 0 0 1 0 -876)">
		<stop  offset="0" style="stop-color:#00B1A5"/>
		<stop  offset="0" style="stop-color:#00576D"/>
		<stop  offset="1" style="stop-color:#11344C"/>
	</linearGradient>
	<path class="st3" d="M30.6,184.4l127.7-115l-0.3,69.2c0,19.2-11.9,36.4-30,43l0,0c-3.8,1.4-7.8,2.3-11.8,2.6
		c-1.3,0.1-2.6,0.1-3.8,0.1L30.6,184.4z"/>
</g>
<path class="st4" d="M269.9,145.7h-42.5V23.9h42.5c20.4,0,36.1,5.5,47,16.5s16.4,25.8,16.4,44.4s-5.5,33.5-16.4,44.4
	C306,140.2,290.3,145.7,269.9,145.7z M246,128.2h23.9c14.8,0,26-3.8,33.5-11.5s11.2-18.3,11.2-31.9c0-13.5-3.7-24.2-11.2-31.9
	s-18.6-11.5-33.5-11.5H246V128.2z"/>
<path class="st4" d="M444.4,98.8v46.7h-15.9v-21.2h-0.4c-2.8,6.4-7.4,11.8-13.4,15.4c-6.4,3.9-13.9,5.9-21.4,5.7
	c-12,0.2-23.5-4.4-32.1-12.8c-9-8.5-13.5-20.1-13.5-34.6c0-13.7,4.5-25.1,13.6-34s20.7-13.4,34.9-13.4c14.2,0,25.8,4.4,34.7,13.3
	S444.4,84.4,444.4,98.8z M373.9,120.7c5.7,5.8,13.2,8.8,22.4,8.8s16.7-2.9,22.4-8.8c5.7-5.8,8.6-13.4,8.6-22.6s-2.9-16.8-8.6-22.6
	s-13.2-8.8-22.4-8.8s-16.7,2.9-22.4,8.8c-5.7,5.8-8.6,13.4-8.6,22.6S368.2,114.8,373.9,120.7L373.9,120.7z"/>
<path class="st4" d="M534.3,78.4h-17.1c-0.2-3.5-2.1-6.7-5.1-8.7c-3.2-2.2-7.4-3.4-12.6-3.4c-5.7,0-10.2,1.2-13.4,3.4
	c-3.1,2-4.9,5.5-4.8,9.3c0,2.8,1.4,4.9,4.2,6.4c3.2,1.6,6.7,2.6,10.3,3.1l13.3,2c4.5,0.6,9,1.7,13.3,3.1c4.2,1.4,7.8,4.2,10.2,7.9
	c2.7,3.9,4.1,8.9,4.1,15c0,8.5-3.4,15.5-10.3,20.9c-6.9,5.4-15.9,8.1-27.1,8.1c-11.1,0-20-2.6-26.8-7.9
	c-6.6-4.8-10.5-12.4-10.6-20.6h17.5c0.2,3.8,2.2,7.3,5.5,9.3c3.4,2.3,8.1,3.5,14.2,3.5c6.4,0,11.4-1.2,14.9-3.6
	c3.3-2.1,5.3-5.7,5.2-9.6c0-2.8-1.6-5.5-4.1-6.7c-3.2-1.7-6.7-2.8-10.3-3.3l-13.3-2c-4.5-0.6-9-1.6-13.3-3
	c-4.2-1.4-7.8-4.1-10.3-7.7c-2.7-3.8-4.1-8.6-4.1-14.4c-0.2-8,3.4-15.7,9.8-20.7c6.5-5.4,15-8.1,25.6-8.1c10.4,0,18.9,2.6,25.3,7.8
	C530.5,63.3,534.2,70.6,534.3,78.4z"/>
<path class="st4" d="M601.6,66.7c-8.3,0-14.9,2.6-19.8,7.7c-4.9,5.1-7.4,12.4-7.4,21.9v49.5h-17.3V11.6h17.3v55.5h0.4
	c6.2-10.9,16.1-16.4,29.7-16.4c12,0,21.9,3.9,29.8,11.6c7.9,7.7,11.8,19.1,11.8,34v49.2h-17.3V96.3c0-9.6-2.4-16.9-7.3-22
	S609.9,66.7,601.6,66.7z"/>
<path class="st4" d="M711.3,128.5c8.3,0,14.9-2.6,19.8-7.7c4.9-5.1,7.4-12.3,7.4-21.7V53h17.3v87c0,14.8-4.1,25.9-12.4,33.1
	c-8.3,7.2-19.1,10.8-32.5,10.9c-10.8,0-20.1-2.6-27.9-7.7c-7.8-5.1-12.9-12.6-15.5-30.6h17.3c4.1,18.1,12.8,23.1,26.1,23.1
	c18.4,0,27.5-9.5,27.5-28.4v-12.2H738c-6,11.1-15.9,16.6-29.7,16.6c-12,0-21.9-3.9-29.8-11.6s-11.8-19-11.8-34V53H684v46.2
	c0,9.6,2.4,16.9,7.3,21.9C696.3,126,702.9,128.5,711.3,128.5z"/>
</svg>
